<?xml version="1.0" encoding="utf-8"?>
<!-- Generator: Adobe Illustrator 23.0.1, SVG Export Plug-In . SVG Version: 6.00 Build 0)  -->
<svg version="1.1" id="Calque_1" xmlns="http://www.w3.org/2000/svg" xmlns:xlink="http://www.w3.org/1999/xlink" x="0px" y="0px"
	 viewBox="0 0 334.2 212.4" style="enable-background:new 0 0 334.2 212.4;" xml:space="preserve">
<style type="text/css">
	.st0{fill:#A8A8A7;}
	.st1{fill:#E30613;}
	.st2{fill:#FFFFFF;}
</style>
<path class="st0" d="M328.7,71.8c0,10-8.5,18.1-19,18.1H98.9c-10.5,0-19-8.1-19-18.1V23.6c0-10,8.5-18.1,19-18.1h210.8
	c10.5,0,19,8.1,19,18.1V71.8z"/>
<path class="st1" d="M154.5,174.2c0,5.6-4.5,10.1-10.1,10.1l-128.5,0c-5.6,0-10.1-4.5-10.1-10.1V44.8c0-5.6,4.5-10.1,10.1-10.1
	l128.5,0c5.6,0,10.1,4.5,10.1,10.2L154.5,174.2z"/>
<g>
	<path class="st2" d="M11.4,146.8c5.1-0.5,8.4-1.4,9.7-2.6c1.3-1.3,2-4.7,2-10.4V99.4c0-3.1-0.2-5.3-0.6-6.5c-0.7-2-2.2-3-4.5-3
		c-0.5,0-1,0-1.6,0.1c-0.5,0.1-2,0.5-4.4,1.2V89l3.1-1c8.4-2.7,14.3-4.8,17.6-6.2c1.3-0.6,2.2-0.9,2.6-0.9c0.1,0.3,0.1,0.7,0.1,1.1
		v51.8c0,5.5,0.7,8.9,2,10.3c1.3,1.4,4.3,2.3,9,2.7v2H11.4V146.8z M22.9,50.3c1.4-1.5,3.2-2.2,5.3-2.2c2.1,0,3.8,0.7,5.3,2.2
		c1.5,1.5,2.2,3.2,2.2,5.3c0,2.1-0.7,3.8-2.2,5.3c-1.5,1.5-3.2,2.2-5.3,2.2c-2.1,0-3.9-0.7-5.3-2.2c-1.4-1.5-2.2-3.2-2.2-5.3
		C20.7,53.6,21.4,51.8,22.9,50.3z"/>
	<path class="st2" d="M65.2,82v46.2c0,3.3,0.5,5.9,1.4,7.9c1.8,3.7,5.1,5.5,9.8,5.5c3.3,0,6.5-1.1,9.6-3.2c1.8-1.2,3.6-2.9,5.4-5
		V93.8c0-3.7-0.7-6.1-2.2-7.3c-1.4-1.2-4.3-1.9-8.7-2.1V82h23.3v50.8c0,3.3,0.6,5.5,1.8,6.7c1.2,1.2,3.7,1.8,7.5,1.6v2
		c-2.6,0.7-4.6,1.3-5.8,1.6c-1.3,0.4-3.3,1-6.3,2c-1.3,0.4-4,1.5-8.2,3.1c-0.2,0-0.4-0.1-0.4-0.3c0-0.2-0.1-0.5-0.1-0.8v-11.6
		c-3.3,3.9-6.3,6.8-8.9,8.7c-4.1,2.9-8.4,4.3-13,4.3c-4.2,0-8.1-1.5-11.8-4.5c-3.8-2.9-5.6-7.9-5.6-14.8V93.4c0-3.8-0.8-6.4-2.5-7.7
		c-1.1-0.8-3.3-1.4-6.8-1.7v-2H65.2z"/>
	<path class="st2" d="M146.6,82.3v5.2h-14.7l-0.1,41.6c0,3.7,0.3,6.4,0.9,8.3c1.2,3.3,3.4,5,6.8,5c1.7,0,3.2-0.4,4.5-1.2
		c1.3-0.8,2.7-2.1,4.4-3.9l1.9,1.6l-1.6,2.2c-2.5,3.4-5.1,5.7-7.9,7.1c-2.8,1.4-5.5,2.1-8.1,2.1c-5.7,0-9.5-2.5-11.5-7.6
		c-1.1-2.7-1.7-6.5-1.7-11.4V87.5h-7.9c-0.2-0.1-0.4-0.3-0.5-0.4c-0.1-0.1-0.2-0.3-0.2-0.6c0-0.5,0.1-0.9,0.3-1.1
		c0.2-0.3,0.9-0.9,2.1-1.8c3.3-2.7,5.7-5,7.2-6.7c1.5-1.7,4.9-6.2,10.4-13.5c0.6,0,1,0,1.1,0.1c0.1,0.1,0.2,0.5,0.2,1.1v17.7H146.6z
		"/>
</g>
<g>
	<path class="st1" d="M9.2,206.4c-2,0-3.4-1.3-3.4-3.2v-6.6h0.7v6.5c0,1.6,1.1,2.7,2.6,2.7c1.6,0,2.6-1.1,2.6-2.7v-6.5h0.7v6.6
		C12.6,205,11.2,206.4,9.2,206.4z"/>
	<path class="st1" d="M21.7,206.3l-5.7-8.4v8.4h-0.7v-9.7H16l5.7,8.4v-8.4h0.7v9.7H21.7z"/>
	<path class="st1" d="M25.3,206.3v-9.7h0.7v9.7H25.3z"/>
	<path class="st1" d="M31.4,206.3h-0.6l-3.2-9.7h0.8l2.8,8.4l2.8-8.4h0.8L31.4,206.3z"/>
	<path class="st1" d="M36.1,206.3v-9.7h6v0.7h-5.2v3.8h4.5v0.7h-4.5v3.9h5.2v0.7H36.1z"/>
	<path class="st1" d="M50.1,206.3l-2.4-4.5H45v4.5h-0.7v-9.7H48c1.6,0,2.8,0.9,2.8,2.6c0,1.4-0.9,2.4-2.3,2.6l2.4,4.5H50.1z
		 M47.9,197.2H45v3.9h2.9c1.3,0,2.2-0.6,2.2-2C50.1,197.9,49.2,197.2,47.9,197.2z"/>
	<path class="st1" d="M55.6,206.4c-1.5,0-2.4-0.4-3.3-1.3l0.5-0.5c0.9,0.9,1.6,1.1,2.8,1.1c1.6,0,2.5-0.7,2.5-2c0-0.6-0.2-1-0.5-1.4
		c-0.4-0.3-0.6-0.4-1.4-0.5l-1.1-0.2c-0.7-0.1-1.3-0.4-1.8-0.7c-0.5-0.4-0.8-1-0.8-1.8c0-1.6,1.2-2.7,3.1-2.7c1.2,0,2,0.3,2.8,1
		L58,198c-0.6-0.5-1.2-0.9-2.4-0.9c-1.4,0-2.3,0.8-2.3,2c0,0.6,0.2,1,0.5,1.3c0.3,0.3,0.9,0.5,1.5,0.6l1.1,0.2
		c0.9,0.1,1.3,0.3,1.8,0.6c0.5,0.4,0.9,1.1,0.9,1.9C58.9,205.3,57.7,206.4,55.6,206.4z"/>
	<path class="st1" d="M61.1,206.3v-9.7h0.7v9.7H61.1z"/>
	<path class="st1" d="M67.3,197.2v9h-0.7v-9h-2.9v-0.7h6.6v0.7H67.3z"/>
	<path class="st1" d="M72,206.3v-9.7h6v0.7h-5.2v3.8h4.5v0.7h-4.5v3.9H78v0.7H72z M75,195.7h-0.8l1.3-2h0.9L75,195.7z"/>
	<path class="st1" d="M86,197.2v9h-0.7v-9h-2.9v-0.7h6.6v0.7H86z"/>
	<path class="st1" d="M95.9,205.4c-0.7,0.6-1.5,1-2.5,1c-0.9,0-1.8-0.4-2.5-1c-0.9-0.9-0.9-1.7-0.9-3.9c0-2.2,0-3.1,0.9-3.9
		c0.7-0.6,1.5-1,2.5-1c0.9,0,1.8,0.4,2.5,1c0.9,0.9,0.9,1.7,0.9,3.9C96.8,203.6,96.8,204.5,95.9,205.4z M95.3,197.9
		c-0.5-0.5-1.2-0.8-1.9-0.8c-0.7,0-1.4,0.3-1.9,0.8c-0.7,0.7-0.8,1.4-0.8,3.5c0,2.1,0.1,2.8,0.8,3.5c0.5,0.5,1.2,0.7,1.9,0.7
		c0.7,0,1.4-0.3,1.9-0.7c0.7-0.7,0.8-1.4,0.8-3.5C96,199.3,96,198.6,95.3,197.9z"/>
	<path class="st1" d="M102.5,206.4c-2,0-3.4-1.3-3.4-3.2v-6.6h0.7v6.5c0,1.6,1.1,2.7,2.6,2.7s2.6-1.1,2.6-2.7v-6.5h0.7v6.6
		C105.9,205,104.5,206.4,102.5,206.4z"/>
	<path class="st1" d="M108.6,206.3v-9.7h0.7v9h5.2v0.7H108.6z"/>
	<path class="st1" d="M121.4,205.4c-0.7,0.6-1.5,1-2.5,1c-0.9,0-1.8-0.4-2.5-1c-0.9-0.9-0.9-1.7-0.9-3.9c0-2.2,0-3.1,0.9-3.9
		c0.7-0.6,1.5-1,2.5-1c0.9,0,1.8,0.4,2.5,1c0.9,0.9,0.9,1.7,0.9,3.9C122.3,203.6,122.3,204.5,121.4,205.4z M120.8,197.9
		c-0.5-0.5-1.2-0.8-1.9-0.8c-0.7,0-1.4,0.3-1.9,0.8c-0.7,0.7-0.8,1.4-0.8,3.5c0,2.1,0.1,2.8,0.8,3.5c0.5,0.5,1.2,0.7,1.9,0.7
		c0.7,0,1.4-0.3,1.9-0.7c0.7-0.7,0.8-1.4,0.8-3.5C121.6,199.3,121.5,198.6,120.8,197.9z"/>
	<path class="st1" d="M128.1,206.4c-2,0-3.4-1.3-3.4-3.2v-6.6h0.7v6.5c0,1.6,1.1,2.7,2.6,2.7c1.6,0,2.6-1.1,2.6-2.7v-6.5h0.7v6.6
		C131.4,205,130,206.4,128.1,206.4z"/>
	<path class="st1" d="M136.6,206.4c-1.5,0-2.4-0.4-3.3-1.3l0.5-0.5c0.9,0.9,1.6,1.1,2.8,1.1c1.6,0,2.5-0.7,2.5-2
		c0-0.6-0.2-1-0.5-1.4c-0.4-0.3-0.6-0.4-1.4-0.5l-1.2-0.2c-0.7-0.1-1.3-0.4-1.8-0.7c-0.5-0.4-0.8-1-0.8-1.8c0-1.6,1.2-2.7,3.1-2.7
		c1.2,0,2,0.3,2.8,1L139,198c-0.6-0.5-1.2-0.9-2.4-0.9c-1.4,0-2.3,0.8-2.3,2c0,0.6,0.2,1,0.5,1.3c0.3,0.3,0.9,0.5,1.5,0.6l1.1,0.2
		c0.9,0.1,1.3,0.3,1.8,0.6c0.5,0.4,0.9,1.1,0.9,1.9C139.9,205.3,138.7,206.4,136.6,206.4z"/>
	<path class="st1" d="M142.1,206.3v-9.7h6v0.7h-5.2v3.8h4.5v0.7h-4.5v3.9h5.2v0.7H142.1z"/>
	<path class="st1" d="M153.5,206.3v-9.7h0.7v9.7H153.5z"/>
</g>
<g>
	<path class="st2" d="M204.4,61.1l-4.5-9.2h-3.3v9.2h-4.5V37.9h9.1c4.7,0,7.5,3.2,7.5,7.1c0,3.3-2,5.3-4.2,6.1l5.2,10H204.4z
		 M200.9,42h-4.3v6.1h4.3c2,0,3.3-1.3,3.3-3.1C204.2,43.2,202.9,42,200.9,42z"/>
	<path class="st2" d="M227.4,58.7c-1.6,1.6-3.6,2.5-6.2,2.5c-2.6,0-4.6-0.9-6.3-2.5c-2.3-2.3-2.3-5.2-2.3-9.2s-0.1-6.9,2.3-9.2
		c1.6-1.6,3.6-2.5,6.3-2.5c2.6,0,4.6,0.9,6.2,2.5c2.3,2.3,2.3,5.2,2.3,9.2S229.7,56.4,227.4,58.7z M224,43c-0.7-0.7-1.7-1.2-2.9-1.2
		c-1.2,0-2.3,0.5-2.9,1.2c-0.9,1-1.1,2-1.1,6.5s0.2,5.5,1.1,6.5c0.7,0.7,1.7,1.2,2.9,1.2c1.2,0,2.2-0.5,2.9-1.2c0.9-1,1.1-2,1.1-6.5
		S224.9,44,224,43z"/>
	<path class="st2" d="M248.8,58.9c-1.5,1.5-3.7,2.2-6.1,2.2h-8.4V37.9h8.4c2.4,0,4.6,0.7,6.1,2.2c2.6,2.6,2.3,5.8,2.3,9.3
		C251.1,52.9,251.4,56.3,248.8,58.9z M245.6,43.4c-0.8-0.9-1.8-1.4-3.4-1.4h-3.4v15.1h3.4c1.6,0,2.6-0.5,3.4-1.4c0.8-1,1-2.7,1-6.2
		C246.6,45.9,246.5,44.4,245.6,43.4z"/>
	<path class="st2" d="M255.7,61.1V37.9H271v4h-10.7v5.4h9.1v4h-9.1v5.6H271v4H255.7z"/>
	<path class="st2" d="M274,61.1v-3.6l9.9-15.5h-9.5v-4h14.8v3.6l-9.9,15.5h9.9v4H274z"/>
</g>
<g>
	<path class="st1" d="M317,176.4c-12.1,7.1-61.5,7.6-61.5,7.6l-7.3,0.3h61.5c10.5,0,19-8.1,19-18.1v-16.1
		C328.5,155.6,327.2,170.5,317,176.4z"/>
	<path class="st1" d="M328.6,149.9v0.2C328.6,150,328.7,150,328.6,149.9L328.6,149.9z"/>
</g>
<g>
	<path class="st2" d="M24.6,155.2c3.1,0,5.8,1,8,2.9c2.3,2,3.4,4.4,3.4,7.3c0,3-1.1,5.5-3.4,7.5c-2.3,2-5,3-8.3,3
		c-3.3,0-6-1-8.3-2.9c-2.2-1.9-3.3-4.5-3.3-7.5c0-3.2,1.3-5.7,3.9-7.7C18.8,156,21.5,155.2,24.6,155.2z M24.3,156.2
		c-2.1,0-3.8,0.7-5.1,2c-1.6,1.6-2.4,4-2.4,7.2c0,3.2,0.8,5.7,2.5,7.5c1.3,1.3,3,2,5.1,2c2.2,0,4.1-0.7,5.5-2.2
		c1.5-1.5,2.2-3.8,2.2-6.9c0-3.4-0.8-5.9-2.4-7.6C28.3,156.9,26.6,156.2,24.3,156.2z"/>
	<path class="st2" d="M52.2,170.4c-0.4,1.8-1.3,3.1-2.5,4.1c-1.3,1-2.7,1.4-4.2,1.4c-1.8,0-3.4-0.6-4.8-1.9c-1.4-1.3-2-3-2-5.2
		c0-2.1,0.8-3.8,2.3-5.1c1.5-1.3,3.3-2,5.4-2c1.6,0,2.9,0.3,3.9,1c1,0.7,1.5,1.4,1.5,2.2c0,0.4-0.1,0.7-0.4,0.9
		c-0.3,0.2-0.7,0.3-1.2,0.3c-0.7,0-1.2-0.2-1.6-0.6c-0.2-0.2-0.3-0.6-0.4-1.2c-0.1-0.6-0.3-1-0.7-1.3c-0.4-0.3-1-0.4-1.7-0.4
		c-1.2,0-2.1,0.4-2.8,1.1c-0.9,1-1.4,2.2-1.4,3.8c0,1.6,0.5,3,1.4,4.2c0.9,1.2,2.2,1.8,3.8,1.8c1.1,0,2.2-0.3,3.1-1
		c0.6-0.4,1.3-1.3,1.9-2.4L52.2,170.4z"/>
	<path class="st2" d="M68.2,170.4c-0.4,1.8-1.3,3.1-2.5,4.1c-1.3,1-2.7,1.4-4.2,1.4c-1.8,0-3.4-0.6-4.8-1.9c-1.4-1.3-2-3-2-5.2
		c0-2.1,0.8-3.8,2.3-5.1c1.5-1.3,3.3-2,5.4-2c1.6,0,2.9,0.3,3.9,1c1,0.7,1.5,1.4,1.5,2.2c0,0.4-0.1,0.7-0.4,0.9
		c-0.3,0.2-0.7,0.3-1.2,0.3c-0.7,0-1.2-0.2-1.6-0.6c-0.2-0.2-0.3-0.6-0.4-1.2c-0.1-0.6-0.3-1-0.7-1.3c-0.4-0.3-1-0.4-1.7-0.4
		c-1.2,0-2.1,0.4-2.8,1.1c-0.9,1-1.4,2.2-1.4,3.8c0,1.6,0.5,3,1.4,4.2c0.9,1.2,2.2,1.8,3.8,1.8c1.1,0,2.2-0.3,3.1-1
		c0.6-0.4,1.3-1.3,1.9-2.4L68.2,170.4z"/>
	<path class="st2" d="M76.1,161.7v10.8c0,0.8,0.1,1.4,0.2,1.7c0.1,0.3,0.4,0.5,0.7,0.6c0.3,0.1,0.8,0.2,1.6,0.2v0.5h-7.8v-0.5
		c0.8,0,1.3-0.1,1.6-0.2c0.3-0.1,0.5-0.3,0.6-0.6c0.2-0.3,0.2-0.9,0.2-1.7v-5.2c0-1.5-0.1-2.4-0.2-2.8c-0.1-0.3-0.2-0.5-0.4-0.7
		c-0.2-0.1-0.4-0.2-0.7-0.2c-0.3,0-0.7,0.1-1.2,0.2l-0.2-0.5l4.8-1.6H76.1z M74.6,154.6c0.5,0,0.9,0.1,1.3,0.4
		c0.3,0.3,0.5,0.6,0.5,1c0,0.4-0.2,0.8-0.5,1.1c-0.3,0.3-0.8,0.4-1.3,0.4c-0.5,0-0.9-0.1-1.3-0.4c-0.4-0.3-0.5-0.6-0.5-1.1
		c0-0.4,0.2-0.8,0.5-1C73.7,154.8,74.1,154.6,74.6,154.6z"/>
	<path class="st2" d="M85.2,157.6v4.4h3.8v1h-3.8v8.7c0,0.9,0.1,1.5,0.4,1.8c0.3,0.3,0.7,0.5,1.2,0.5c0.4,0,0.8-0.1,1.1-0.3
		c0.4-0.2,0.6-0.5,0.8-0.9h0.7c-0.4,1-1,1.7-1.7,2.2c-0.7,0.5-1.5,0.7-2.3,0.7c-0.5,0-1.1-0.1-1.6-0.4c-0.5-0.3-0.9-0.6-1.1-1.1
		c-0.2-0.5-0.4-1.2-0.4-2.1v-9h-2.5v-0.5c0.6-0.2,1.3-0.6,2-1.1c0.7-0.5,1.3-1.1,1.8-1.8c0.3-0.4,0.6-1,1.1-2H85.2z"/>
	<path class="st2" d="M99.6,173.5c-1.7,1.1-2.7,1.7-3.1,1.8c-0.6,0.2-1.3,0.4-2,0.4c-1.1,0-2-0.3-2.7-1c-0.7-0.6-1.1-1.5-1.1-2.5
		c0-0.7,0.2-1.2,0.5-1.7c0.5-0.7,1.3-1.3,2.5-1.9c1.2-0.6,3.2-1.3,5.9-2.1v-0.5c0-1.3-0.3-2.3-0.8-2.8c-0.5-0.5-1.3-0.7-2.2-0.7
		c-0.7,0-1.3,0.2-1.8,0.5c-0.4,0.3-0.7,0.7-0.7,1.1l0,0.8c0,0.4-0.1,0.8-0.4,1c-0.3,0.2-0.6,0.4-1.1,0.4c-0.4,0-0.8-0.1-1.1-0.4
		c-0.3-0.3-0.4-0.6-0.4-1c0-0.8,0.5-1.6,1.5-2.3c1-0.7,2.5-1.1,4.3-1.1c1.4,0,2.6,0.2,3.5,0.6c0.7,0.3,1.2,0.8,1.5,1.4
		c0.2,0.4,0.3,1.3,0.3,2.6v4.6c0,1.3,0,2.1,0.1,2.4c0.1,0.3,0.2,0.5,0.3,0.6c0.1,0.1,0.3,0.1,0.5,0.1c0.2,0,0.4,0,0.5-0.1
		c0.2-0.1,0.7-0.5,1.4-1.1v0.8c-1.3,1.5-2.6,2.2-3.8,2.2c-0.6,0-1-0.2-1.4-0.5C99.8,174.9,99.6,174.3,99.6,173.5z M99.6,172.6v-5.1
		c-1.8,0.6-2.9,1-3.4,1.2c-0.9,0.4-1.6,0.9-2,1.3c-0.4,0.5-0.6,1-0.6,1.5c0,0.7,0.3,1.3,0.8,1.8c0.5,0.5,1.1,0.7,1.7,0.7
		C97,174.1,98.2,173.6,99.6,172.6z"/>
	<path class="st2" d="M111.2,164.5c1.9-1.9,3.7-2.8,5.4-2.8c0.9,0,1.6,0.2,2.3,0.5c0.6,0.4,1.1,1,1.5,1.8c0.3,0.6,0.4,1.5,0.4,2.7
		v5.7c0,0.8,0.1,1.4,0.2,1.7c0.1,0.2,0.3,0.4,0.6,0.6c0.3,0.1,0.8,0.2,1.6,0.2v0.5h-8v-0.5h0.3c0.7,0,1.3-0.1,1.6-0.3
		c0.3-0.2,0.5-0.5,0.6-0.8c0-0.1,0.1-0.6,0.1-1.4v-5.5c0-1.2-0.2-2.1-0.6-2.7c-0.4-0.6-1-0.8-1.9-0.8c-1.4,0-2.8,0.6-4.2,1.9v7.1
		c0,0.9,0.1,1.5,0.2,1.7c0.2,0.3,0.4,0.5,0.7,0.6c0.3,0.1,0.9,0.2,1.7,0.2v0.5h-8v-0.5h0.4c0.8,0,1.4-0.2,1.7-0.5
		c0.3-0.3,0.4-1,0.4-2v-5c0-1.6,0-2.6-0.1-2.9c-0.1-0.4-0.2-0.6-0.4-0.7c-0.2-0.1-0.4-0.2-0.7-0.2c-0.3,0-0.7,0.1-1.2,0.2l-0.3-0.5
		l4.8-1.6h0.8V164.5z"/>
	<path class="st2" d="M130,161.7v10.8c0,0.8,0.1,1.4,0.2,1.7c0.1,0.3,0.4,0.5,0.7,0.6c0.3,0.1,0.8,0.2,1.6,0.2v0.5h-7.8v-0.5
		c0.8,0,1.3-0.1,1.6-0.2c0.3-0.1,0.5-0.3,0.6-0.6c0.2-0.3,0.2-0.9,0.2-1.7v-5.2c0-1.5-0.1-2.4-0.2-2.8c-0.1-0.3-0.2-0.5-0.4-0.7
		c-0.2-0.1-0.4-0.2-0.7-0.2c-0.3,0-0.7,0.1-1.2,0.2l-0.2-0.5l4.8-1.6H130z M128.6,154.6c0.5,0,0.9,0.1,1.3,0.4
		c0.3,0.3,0.5,0.6,0.5,1c0,0.4-0.2,0.8-0.5,1.1c-0.3,0.3-0.8,0.4-1.3,0.4c-0.5,0-0.9-0.1-1.3-0.4c-0.4-0.3-0.5-0.6-0.5-1.1
		c0-0.4,0.2-0.8,0.5-1C127.6,154.8,128.1,154.6,128.6,154.6z"/>
	<path class="st2" d="M137.2,167.1c0,2,0.6,3.6,1.7,4.7c1.2,1.1,2.5,1.7,4.1,1.7c1.1,0,2-0.2,2.7-0.7c0.8-0.5,1.4-1.3,2-2.5l0.5,0.3
		c-0.2,1.3-1,2.6-2.1,3.7c-1.2,1.1-2.7,1.6-4.4,1.6c-1.9,0-3.6-0.6-5-1.9c-1.4-1.3-2.1-2.9-2.1-5.1c0-2.3,0.7-4.1,2.1-5.4
		c1.4-1.3,3.2-1.9,5.3-1.9c1.8,0,3.3,0.5,4.4,1.5c1.2,1,1.7,2.3,1.7,4H137.2z M137.2,166.3h7.4c-0.1-0.9-0.2-1.5-0.4-1.8
		c-0.3-0.5-0.7-1-1.3-1.3c-0.6-0.3-1.2-0.5-1.8-0.5c-1,0-1.8,0.3-2.6,0.9C137.8,164.3,137.3,165.1,137.2,166.3z"/>
</g>
</svg>
