<?xml version="1.0" encoding="utf-8"?>
<!-- Generator: Adobe Illustrator 15.0.0, SVG Export Plug-In . SVG Version: 6.00 Build 0)  -->
<!DOCTYPE svg PUBLIC "-//W3C//DTD SVG 1.1//EN" "http://www.w3.org/Graphics/SVG/1.1/DTD/svg11.dtd">
<svg version="1.1" id="Calque_1" xmlns="http://www.w3.org/2000/svg" xmlns:xlink="http://www.w3.org/1999/xlink" x="0px" y="0px"
	 width="1512px" height="423px" viewBox="61 225.5 1512 423" enable-background="new 61 225.5 1512 423" xml:space="preserve">
<g>
	<path fill="#FFFFFF" d="M674.799,493.045l-11.73-20.912l-19.383-34.174l20.402-36.213l10.711-19.383h-81.607
		c1.02-13.771-8.161-23.462-14.282-27.032l-1.02-1.021l-1.53-0.51c0,0,0,0-0.51,0v-0.51l0.51-0.511v-2.04
		c3.061-19.382-11.222-30.603-19.382-33.663l-1.53-0.51h-1.53c0,0,0,0-0.51,0v-0.511v-1.02v-2.04
		c-1.021-19.893-17.342-27.543-26.013-28.563h-1.53h-1.53v-0.51v-1.021l-0.51-1.529c-3.57-17.342-17.853-22.953-29.073-22.953
		c-1.021,0-1.021,0-1.021,0h-1.53l-1.53,0.511c0,0,0,0-0.51,0c0,0,0-0.511-0.51-0.511v-1.02l-1.021-1.53
		c-5.101-10.711-15.301-16.832-27.032-16.832c-4.08,0-7.141,0.511-8.161,1.021l-1.53,0.51l-1.02,0.51c0,0,0,0-0.511,0l-0.51-0.51
		l-0.51-1.02v-1.021c-6.121-7.141-14.281-11.221-23.463-11.221c-7.65,0-13.262,2.55-14.281,3.57l-1.021,0.51l-1.02,1.02
		c0,0,0,0-0.511,0l-0.51-0.51l-0.51-0.51l-1.53-1.021c-5.61-5.101-12.241-7.141-18.872-7.141c-10.711,0-18.361,5.61-19.892,7.141
		l-1.021,1.021l-1.02,1.02l0,0c0,0-0.511,0-0.511-0.51l-0.51-0.51l-1.53-1.021c-4.591-2.55-9.181-3.57-13.771-3.57
		c-14.281,0-22.952,10.201-23.973,11.731l-1.02,1.021l-0.51,1.02c0,0,0,0,0,0.51h-0.511l-0.51-0.51l-1.53-0.51
		c-3.061-1.021-5.61-1.021-8.161-1.021c-14.791,0-23.972,10.711-27.032,16.832l-0.51,1.021l-0.511,1.529c0,0,0,0,0,0.511h-0.51
		l-1.021-0.511h-2.04c-19.892-1.02-29.072,14.792-31.113,22.953l-0.51,1.529v1.53c0,0,0,0,0,0.511h-0.51h-1.021l-2.55-0.511
		c-19.383,3.061-25.503,19.893-26.013,28.563v1.529v1.53c0,0,0,0,0,0.511h-0.511h-1.02l-1.53,0.51
		c-18.362,7.141-20.912,24.992-19.382,33.663v1.53l0.51,1.53c0,0,0,0,0,0.51c0,0-0.51,0-0.51,0.511h-1.021l-1.53,1.02
		c-11.73,7.651-14.281,18.362-13.771,27.033H99.46l11.222,20.401l20.912,35.194l-19.892,33.663L99.46,493.555h81.608
		c-1.02,13.771,8.161,23.463,14.282,27.033l1.02,0.51l1.53,0.51c0,0,0,0,0.51,0v0.511l-0.51,0.51l-0.51,2.04
		c-3.061,19.382,11.221,30.604,19.382,33.664l1.53,0.51h1.53c0,0,0,0,0.51,0v0.51v1.021v2.04
		c1.021,19.892,17.342,27.543,26.013,28.563h1.53h1.53v0.511v1.02l0.51,1.53c4.591,16.832,18.872,22.952,30.093,22.952
		c1.021,0,1.021,0,1.021,0h1.53l1.02-0.51c0,0,0,0,0.511,0c0,0,0,0.51,0.51,0.51v1.021l1.02,1.53
		c5.101,10.711,15.302,16.831,27.033,16.831c4.08,0,7.141-0.51,8.161-1.02l1.53-0.511l1.02-0.51c0,0,0,0,0.51,0l0.511,0.51
		l0.51,1.021l1.021,1.53c6.12,7.141,14.281,11.221,23.462,11.221c7.65,0,13.262-3.06,14.281-3.57l1.021-0.51l1.02-1.021
		c0,0,0,0,0.511,0l0.51,0.511l0.51,0.51l1.53,1.021c5.61,4.59,12.241,7.141,18.872,7.141c10.711,0,18.362-5.61,19.892-7.141
		l1.021-1.021l1.021-1.021l0,0c0,0,0.51,0,0.51,0.511l0.51,0.51l1.53,1.021c4.591,2.55,9.181,3.57,13.771,3.57
		c14.281,0,22.952-10.201,23.973-11.731l1.021-1.021l0.51-1.02c0,0,0,0,0-0.511h0.51l0.51,0.511l1.53,0.51
		c3.061,0.51,5.61,1.021,8.161,1.021c14.791,0,23.973-10.712,27.032-16.832l0.511-1.021l0.51-1.53c0,0,0,0,0-0.51h0.51l1.021,0.51
		h2.04c19.893,1.021,29.073-14.791,31.113-22.952l0.51-1.53v-1.53c0,0,0,0,0-0.51h0.51h1.021l1.53-0.51
		c19.382-3.061,25.503-19.893,26.013-28.563v-1.53v-1.53c0,0,0,0,0-0.511h0.51h1.021l1.53-0.51
		c18.361-7.141,20.912-24.992,19.382-33.663v-1.53l-0.51-1.53c0,0,0,0,0-0.51c0,0,0.51,0,0.51-0.511h1.02l1.53-1.02
		c11.731-7.651,14.282-18.362,13.771-27.033h81.608V493.045z"/>
</g>
<g id="Calque_1_00000080889346163542607380000016159776726934892710_">
	<g>
		<g>
			<path fill="#30ABE0" d="M189.229,473.663l-1.02-0.51c-4.591-4.591-11.222-16.322-3.061-28.563l0.51-1.02
				c1.53-1.53,5.101-6.631,0-11.731l-0.51-1.021c-3.57-5.61-7.651-18.361,3.061-28.563l1.02-0.51c1.53-1.021,3.57-3.061,4.08-5.611
				h-16.831h-54.065l23.462,41.824l-23.462,41.824h46.414H192.8C192.8,477.743,191.78,475.703,189.229,473.663z M172.397,445.1
				l-7.141-3.57l-7.141,3.57l1.53-8.16l-5.61-5.61l8.161-1.021l3.57-7.141l3.57,7.141l8.16,1.021l-5.61,5.61L172.397,445.1z"/>
			<g>
				<g>
					<path fill="#30ABE0" d="M250.435,499.166L250.435,499.166l-4.08-9.182l0,0l3.57-1.53l0,0l3.57,8.671l0,0L250.435,499.166z"/>
					<path fill="#30ABE0" d="M283.589,506.307c1.53,2.55,2.04,4.59,1.53,6.63c-0.51,2.041-2.04,3.57-4.08,5.101l-4.591,3.061
						c-2.04,1.53-4.08,2.04-6.12,1.53c-2.041-0.51-3.57-1.53-5.101-4.08l-2.04-3.061c-0.511-0.51-0.511-0.51-1.021-0.51l-9.181,6.12
						c-0.511,0-0.511,0.51-0.511,0.51v0.511c0,0.51,0,0.51-0.51,1.02c0,0.511-0.51,1.021-1.02,1.021l-1.021,1.02l-5.101-7.141
						l1.021-1.02c0.51-0.511,1.02-0.511,1.53-0.511c0.51,0,1.02,0,1.02,0h0.51c0,0,0.511,0,0.511-0.51l24.482-15.812
						c0.51-0.51,0.51-0.51,0.51-1.02c0-0.511,0-1.021,0.51-1.021c0-0.51,0.511-1.021,1.021-1.021l1.02-0.51L283.589,506.307z
						 M277.978,513.448c1.021-0.511,1.53-1.53,2.04-2.04c0.511-1.021,0-1.53-0.51-2.551l-1.53-2.55l-0.51-0.511h-0.51l-10.201,6.631
						c-0.511,0.51-0.511,0.51,0,1.021l2.04,3.06c0.51,1.021,1.53,1.53,2.04,1.53c1.021,0,2.04-0.51,3.061-1.02L277.978,513.448z"/>
					<path fill="#30ABE0" d="M275.938,552.211c0,0.51,0,0.51,0,1.021c0,0.51-0.51,1.02-1.021,1.529l-1.02,1.021l-5.61-6.12
						l1.02-1.021c0.51-0.51,1.021-0.51,1.53-0.51s1.021,0,1.021,0h0.51c0,0,0.51,0,0.51-0.511c0.51-0.51,1.021-1.02,1.021-1.53
						c0.51-0.51,0.51-0.51,1.02-1.02c0.511-0.51,0.511-0.51,0.511-0.51c0-0.511,0.51-0.511,0.51-1.021c0,0,0-0.51-0.51-0.51
						l-4.081-4.591c-0.51-0.51-1.02-0.51-1.53,0l-0.51,0.51c-0.51,0.511-0.51,0.511-1.02,1.021c-0.511,0.51-1.021,0.51-1.53,1.021
						l-0.511,0.51v0.51c0,0.51,0,0.51,0,1.021c0,0.51-0.51,1.02-1.02,1.53l-1.021,1.02l-5.61-6.631l1.021-1.02
						c0.51-0.511,1.02-0.511,1.529-1.021c0.511,0,1.021,0,1.021,0h0.51h0.511c4.59-3.061,8.671-5.61,12.241-7.65
						c1.53-1.021,3.06-2.04,4.59-3.061s3.061-1.53,4.081-2.55c1.02-0.511,2.04-1.53,3.06-1.53c0.511-0.511,1.021-0.511,1.021-0.511
						l0.51-0.51v-0.51c-0.51-1.021,0-2.04,1.021-3.061l1.02-1.02l4.591,5.1c0.51,0.511,1.021,1.021,1.021,2.041
						c0,0.51,0,1.02-0.511,1.529c0,0-0.51,0.511-1.02,1.53c-0.51,1.021-1.53,1.53-2.551,3.061c-1.02,1.021-2.04,2.551-3.06,4.08
						c-1.021,1.53-2.551,3.061-3.57,4.591c-3.061,3.57-6.121,7.65-9.691,12.241c0,0,0,0.51-0.51,0.51
						C275.938,552.211,275.938,552.211,275.938,552.211z M278.488,539.46l0.511,0.51c0,0,0.51,0,0.51-0.51c0,0,0-0.511,0.51-0.511
						c0.511-0.51,1.021-1.02,1.53-1.529c0.51-0.511,1.021-1.53,2.04-2.551c0.511-1.021,1.53-1.53,2.04-2.55l5.611-7.142l0,0
						l-7.651,5.101c-1.02,0.511-2.04,1.021-3.06,2.041c-1.021,0.51-1.53,1.02-2.551,1.529c-0.51,0.511-1.53,1.021-2.04,1.021
						s-0.51,0-0.51,0l-0.511,0.51v0.511L278.488,539.46z"/>
					<path fill="#30ABE0" d="M320.823,543.031l-1.021,1.53c-0.51,0.51-0.51,1.02-1.02,1.02c-0.511,0-1.021,0-1.021,0h-0.51
						c0,0-0.511,0-0.511,0.51l0,0l-15.812,20.912c-1.02,1.021-1.53,2.041-2.55,2.551c-1.021,0.51-2.04,1.021-3.061,1.021
						s-2.04,0-3.061-0.511c-1.02-0.51-2.04-1.02-3.06-1.53c-1.021-1.02-2.041-1.53-2.551-2.55c-0.51-1.021-1.02-2.04-1.53-3.061
						c-0.51-1.02-0.51-2.04,0-3.061c0-1.02,0.511-2.04,1.53-3.06l15.812-20.912l0,0c0-0.511,0.51-0.511,0.51-0.511v-0.51
						c0-0.51,0-0.51,0-1.021c0-0.51,0-1.02,0.511-1.529l1.02-1.021l7.141,5.101l-1.02,1.021c-0.51,0.51-1.021,0.51-1.021,1.02
						c-0.51,0-1.02,0-1.02,0h-0.511c0,0-0.51,0-0.51,0.51l-15.812,20.912c-1.021,1.021-1.021,2.041-1.021,3.061
						c0.511,1.021,1.021,2.04,1.53,2.551c0.511,0.51,1.53,1.02,2.551,1.02c1.02,0,2.04-0.51,3.061-1.53l15.812-20.912l0,0l0,0v-0.51
						v-0.51c0-0.511,0-0.511,0-1.021s0-1.02,0.51-1.53l1.021-1.02L320.823,543.031z"/>
					<path fill="#30ABE0" d="M324.393,580.774l-2.551,5.101c0,0.511-0.51,0.511-1.02,0.511c-0.511,0-0.511,0-1.021,0l-1.02-0.511
						l-13.771-7.141l0.51-1.53c0.51-0.51,0.51-1.02,1.02-1.53c0.511-0.51,0.511-0.51,1.021-0.51h0.51c0,0,0.511,0,0.511-0.51
						l13.261-25.503c0-0.51,0-0.51,0-1.02v-0.511c0-0.51-0.51-0.51-0.51-1.02c0-0.511,0-1.021,0.51-1.53l0.511-1.53l7.65,4.08v2.041
						c-0.51,0.51-0.51,1.02-1.021,1.02c-0.51,0-1.02,0.51-1.02,0.51h-0.51l-0.511,0.511l-12.751,25.502v0.511c0,0,0,0.51,0.51,0.51
						l4.081,2.04h0.51l0.51-0.51c0.51-0.51,1.021-1.021,1.53-1.021s1.021,0,2.04,0.511L324.393,580.774z"/>
					<path fill="#30ABE0" d="M359.077,570.573c0,0.51,0,1.529,0.51,2.04c0.51,0.51,1.021,1.53,2.04,2.55
						c1.021,1.021,1.53,1.53,2.551,2.551c1.02,1.02,2.04,2.04,2.55,3.06c1.021,1.021,1.53,2.041,2.04,3.061
						c0.511,1.021,0.511,2.551,0.511,3.57l-1.021,5.101c0,1.53-0.51,2.551-1.53,3.061c-0.51,1.02-1.53,1.53-2.55,2.04
						c-1.021,0.51-2.041,1.021-3.061,1.021c-1.021,0-2.551,0-3.57,0c-1.021,0-2.551-0.511-3.57-1.021
						c-1.021-0.51-2.04-1.021-2.551-2.04c-0.51-1.021-1.02-1.53-1.53-2.551c-0.51-1.02-0.51-2.04,0-3.57l0.511-4.08l2.55,0.51
						c1.021,0,1.53,0.511,2.04,1.021c0.511,0.51,0.511,1.02,0.511,2.04l-0.511,2.04c0,0.511,0,1.021,0,1.021
						c0,0.51,0.511,0.51,1.021,1.02c0.51,0.511,0.51,0.511,1.021,1.021c0.51,0,1.02,0.51,1.529,0.51c0.511,0,1.021,0,1.53,0
						c0.511,0,1.021,0,1.53-0.51c0.51,0,1.021-0.51,1.021-0.51c0.51-0.511,0.51-0.511,0.51-1.021l1.021-5.61
						c0-1.021,0-2.04-0.511-3.061c-0.51-1.02-1.02-1.53-2.04-2.55c-1.02-1.021-1.53-1.53-2.55-2.551
						c-1.021-1.02-2.04-1.53-2.551-2.55c-1.02-1.021-1.53-2.04-2.04-3.061s-0.51-2.551-0.51-4.08l0.51-3.57
						c0.51-1.53,0.51-2.551,1.53-3.57c0.51-1.021,1.53-1.53,2.04-2.041c1.021-0.51,2.04-1.02,3.061-1.02c1.02,0,2.55,0,3.57,0
						c1.02,0,2.55,0.51,3.57,1.02c1.021,0.511,2.04,1.021,2.55,2.041c0.511,1.02,1.021,1.529,1.53,2.55
						c0.511,1.021,0.511,2.04,0,3.57l-0.51,3.57l-2.55-0.51c-1.021,0-1.53-0.511-2.041-1.021c-0.51-0.51-0.51-1.53-0.51-2.04
						l0.51-2.04c0-0.51,0-1.021,0-1.021c0-0.51-0.51-0.51-1.02-1.02c-0.51-0.511-0.51-0.511-1.021-0.511
						c-0.51,0-1.02-0.51-1.02-0.51c-0.511,0-1.021,0-1.021,0c-0.51,0-1.02,0-1.02,0c-0.511,0-0.511,0.51-1.021,0.51
						s-0.51,0.511-0.51,1.021L359.077,570.573z"/>
					<path fill="#30ABE0" d="M398.861,597.096c0.51,0,0.51,0.51,1.02,1.02c0.51,0.511,0.51,1.021,0.51,1.53v1.53h-8.671v-1.53
						c0-0.51,0-1.02,0.511-1.53c0-0.51,0.51-0.51,1.02-1.02l0.511-0.51v-0.511c0-0.51,0-1.02-0.511-2.04c0-0.51,0-1.021,0-1.53
						s0-0.51,0-1.02c0-0.511,0-0.511-0.51-1.021c0,0-0.51,0-1.021,0h-6.12c-0.51,0-1.021,0.51-1.021,1.021c0,0,0,0.51,0,1.02
						s0,1.021,0,1.53s0,1.021,0,2.04c0,0.511,0,0.511,0,0.511s0,0.51,0.511,0.51c0.51,0,0.51,0.51,1.02,1.02
						c0,0.511,0.511,1.021,0.511,1.53v1.53h-8.671v-1.53c0-0.51,0-1.02,0.51-1.53c0.51-0.51,0.51-1.02,1.02-1.02l0.511-0.51
						c0,0,0-0.511,0.51-0.511c1.021-5.61,1.53-10.201,2.55-14.281c0.511-2.04,0.511-3.57,1.021-5.101s0.51-3.061,1.021-4.591
						c0-1.529,0.51-2.55,0.51-3.06c0-1.021,0-1.021,0-1.53c0-0.511,0-0.511,0-0.511s0-0.51-0.51-0.51
						c-2.041-1.02-2.551-1.53-2.551-3.061v-1.02h7.141c1.021,0,1.53,0,2.04,0.51c0.511,0.51,1.021,1.021,1.021,1.53
						c0,0,0,0.51,0.51,1.53c0,1.02,0.511,2.04,0.511,3.57c0.51,1.53,0.51,3.061,1.02,5.101s0.51,3.57,1.021,5.61
						c1.02,4.591,1.53,9.691,3.061,15.302C397.841,596.075,397.841,596.585,398.861,597.096
						C398.35,596.585,398.35,597.096,398.861,597.096z M390.7,586.385c0,0,0.51,0,0.51-0.511v-0.51c0,0,0-0.51,0-1.021
						c0-0.51,0-1.02-0.51-2.04c0-1.02-0.51-2.04-0.51-3.06c0-1.021-0.511-2.041-0.511-3.57l-1.53-9.182l0,0l-1.529,9.182
						c0,1.02-0.511,2.04-0.511,3.57c0,1.02-0.51,2.04-0.51,3.06c0,1.021,0,1.53-0.51,2.04c0,0.511,0,1.021,0,1.021v0.51h0.51
						L390.7,586.385z"/>
					<path fill="#30ABE0" d="M421.302,577.203c1.021,0.511,1.531,1.021,2.041,2.041c0.51,1.02,1.02,2.04,1.53,3.06l1.02,5.611
						c0.511,2.55,0.511,4.59-0.51,6.63c-1.021,1.53-3.061,3.061-5.61,3.57l-10.712,2.041l-0.51-1.53c0-0.511,0-1.021,0-1.53
						c0-0.511,0.51-0.511,0.51-1.021l0.511-0.51c0,0,0-0.51,0-1.021l-5.61-28.053c0-0.51-0.511-1.02-1.021-1.02
						c-1.021,0-1.53-1.021-1.53-2.551l-0.51-1.53l10.201-2.04c3.06-0.51,5.101,0,6.63,1.021c1.53,1.02,2.551,3.06,3.061,5.61
						l1.021,4.591c0,1.02,0,2.04,0,3.06c0,1.021-0.511,1.53-1.021,2.551C421.302,576.184,420.793,576.184,421.302,577.203
						C421.302,576.694,421.302,577.203,421.302,577.203z M411.102,576.184c0,0.51,0.51,0.51,1.02,0.51l3.061-0.51
						c1.02,0,1.53-0.511,2.04-1.53c0.51-1.021,0.51-2.04,0-3.061l-1.02-4.08c0-1.021-0.511-2.04-1.53-2.551
						c-0.511-0.51-1.53-1.02-2.551-0.51l-3.061,0.51c0,0-0.51,0-0.51,0.511v0.51L411.102,576.184z M420.283,583.324
						c0-1.021-0.51-2.04-1.53-2.551c-0.51-0.51-1.53-1.02-2.55-0.51l-3.061,0.51c-0.511,0-0.511,0.511-0.511,1.021l2.551,11.731
						c0,0.51,0.51,0.51,1.021,0.51l3.57-0.51c1.02,0,2.04-0.511,2.04-1.53c0.51-1.021,0.51-2.04,0-3.061L420.283,583.324z"/>
					<path fill="#30ABE0" d="M457.007,581.284c0.511,0,0.511,0,1.021,0.51s0.51,0.51,1.02,1.021l0.511,1.529l-8.161,3.061
						l-0.51-1.53c0-0.51-0.511-1.02,0-1.53c0-0.51,0-1.02,0.51-1.02v-0.51v-0.511c-0.51-0.51-0.51-1.02-1.021-1.53
						c0-0.51-0.51-1.02-0.51-1.02c0-0.51-0.51-0.51-0.51-1.021c0-0.51-0.511-0.51-0.511-0.51s-0.51,0-1.02,0l-5.61,2.04
						c-0.511,0-0.511,0.51-0.511,1.53c0,0,0,0.51,0.511,1.021c0,0.51,0.51,1.02,0.51,1.529c0,0.511,0.51,1.021,0.51,1.53
						c0,0.511,0,0.511,0.511,0.511h0.51c0.51,0,0.51,0,1.02,0.51c0.511,0.51,0.511,0.51,1.021,1.021l0.51,1.529l-8.16,3.061
						l-0.511-1.02c0-0.511-0.51-1.021,0-1.53c0-0.511,0-1.021,0.511-1.021c0,0,0-0.51,0.51-0.51v-0.51
						c-1.021-5.101-2.04-10.201-3.061-14.282c-0.51-2.04-0.51-3.57-1.02-5.101c-1.53-2.04-1.53-3.57-2.041-4.59
						c-0.51-1.021-0.51-2.551-0.51-3.061c0-1.021-0.51-1.021-0.51-1.53s0-0.51,0-0.51s0-0.51-0.51-0.51
						c-1.021,0-1.53-0.511-2.041-2.041l-0.51-1.53l6.631-2.55c0.51-0.51,1.53-0.51,2.04,0c0.51,0,1.021,0.51,1.53,1.021
						c0,0,0.51,0.51,1.021,1.529c0.51,1.021,1.02,2.041,2.04,3.061c1.02,1.53,1.53,2.551,2.55,4.591
						c1.021,1.53,2.04,3.061,3.061,5.101c2.55,4.08,5.101,8.16,8.161,13.261l0.51,0.511
						C456.497,581.284,456.497,581.284,457.007,581.284z M445.786,574.654L445.786,574.654c0.51-0.51,0.51-1.021,0.51-1.021
						s0-0.51-0.51-0.51c-0.511-0.51-0.511-1.021-1.021-2.04c-0.51-0.51-1.02-1.53-1.53-2.551c-0.51-1.02-1.02-2.04-2.04-3.06
						l-5.101-7.651l0,0l2.04,9.182c0,1.02,0.511,2.04,0.511,3.57c0,1.02,0.51,2.04,0.51,3.06c0,1.021,0.51,1.53,0.51,2.041
						c0,0.51,0,1.02,0,1.02s0,0.51,0.511,0.51h0.51L445.786,574.654z"/>
					<path fill="#30ABE0" d="M461.088,538.949c0.51,0,1.02,0.511,1.529,1.53l1.021,1.53l1.53,2.551l-2.551,1.529
						c-0.51,0.511-1.02,0.511-1.02,0c-0.51,0-0.51-0.51-1.021-1.02c0-0.51-0.51-0.51-1.02-0.51l-2.04,1.529l-0.511,0.511v0.51
						l14.792,24.482c0,0.51,0.51,0.51,0.51,0.51h0.51c0.511,0,0.511,0,1.021,0.511c0.51,0,1.021,0.51,1.021,1.02l1.02,1.53
						l-7.141,4.591l-1.021-1.53c-0.51-0.51-0.51-1.021-0.51-1.53s0-1.021,0-1.021v-0.51v-0.51l-14.791-24.992l-0.511-0.511h-0.51
						l-2.04,1.021c0,0,0,0-0.511,0.51v0.51c0.511,0.511,0.511,1.021,0.511,1.53c0,0.511-0.511,1.021-1.021,1.021l-2.04,1.02
						l-1.53-2.55l-1.02-1.021c-0.511-0.51-0.511-1.529-0.511-2.04c0-0.51,0.511-1.02,1.53-1.53l14.281-8.16
						C460.067,538.949,460.577,538.949,461.088,538.949z"/>
					<path fill="#30ABE0" d="M490.16,557.822L490.16,557.822c0.51,0.511,0.51,0.511,0.51,0.511h0.511c0.51,0,0.51,0,1.02,0
						c0.511,0,1.021,0.51,1.021,1.02l1.02,1.021l-6.63,5.61l-0.511-1.021c-0.51-0.51-0.51-1.02-0.51-1.53c0-0.51,0-1.02,0-1.02
						v-0.51c0,0,0-0.511-0.51-0.511l0,0l-18.362-22.442c0-0.51-0.51-0.51-0.51-0.51h-0.51c-0.511,0-0.511,0-1.021,0
						s-1.02-0.51-1.02-1.02l-1.021-1.021l6.631-5.61l1.021,1.02c0.51,0.511,0.51,1.021,0.51,1.53s0,1.021,0,1.021v0.51
						c0,0,0,0.51,0.51,0.51L490.16,557.822z"/>
					<path fill="#30ABE0" d="M480.469,526.708v0.511l8.16,7.141c0.511,0.51,0.511,0.51,1.021,0l4.08-4.591c0,0,0.511,0,0.511-0.51
						h0.51l2.04,2.04c0.51,0.51,0.51,0.51,0,1.021l-4.08,4.59c-0.511,0.511-0.511,0.511,0,1.021l9.181,8.16
						c0.51,0.511,0.51,0.511,1.021,0l3.57-4.08c0.51-0.51,0-0.51,0-1.02c-0.511-0.511-0.511-1.021-0.511-1.53
						c0-0.511,0.511-1.021,1.021-1.53l1.53-1.53l4.08,3.57c0.51,0.51,0.51,0.51,0.51,1.021c0,0.51,0,0.51-0.51,1.02l-2.04,2.551
						l-6.631,7.65l-2.55,2.55l-1.021-1.02c-0.51-0.51-1.02-1.021-1.02-1.53s0-1.021,0-1.021c0-0.51,0-1.02-0.511-1.02
						l-21.422-19.382l-0.51-0.511h-0.511c-0.51,0-0.51,0-1.02,0s-1.021-0.51-1.53-1.02l-1.021-1.021l11.222-12.241
						c0.51-0.51,0.51-0.51,1.02-0.51c0.511,0,0.511,0,1.021,0.51l4.08,3.57l-1.53,1.53c-0.51,0.51-1.02,1.021-1.53,1.021
						c-0.51,0-1.02,0-1.529,0c0,0-0.511,0-0.511-0.511c0-0.51-0.51,0-0.51,0L480.469,526.708
						C480.979,526.198,480.469,526.198,480.469,526.708z"/>
					<path fill="#30ABE0" d="M526.884,514.978c0.511,0,0.511,0,1.021-0.511c0.51,0,1.02,0,1.53,0.511l1.53,1.02l-2.551,3.57
						c-0.51,1.021-1.02,1.021-1.53,1.53c-0.51,0-1.02,0-2.04-0.51l-8.671-5.61c-1.02-0.511-2.04-1.021-3.061-1.021
						c-1.02,0-1.529,0.51-2.04,1.53l-1.53,2.55c0,0.511,0,0.511,0.511,1.021l9.181,5.61c0.51,0,0.51,0.51,0.51,0.51h0.511
						c0.51,0,0.51,0,1.02,0s1.021,0,1.53,0.511l1.021,1.02l-4.591,7.141l-1.53-1.02c-0.51-0.51-1.021-0.51-1.021-1.021
						c0-0.51-0.51-1.02-0.51-1.02v-0.511c0,0,0-0.51-0.51-0.51l-24.482-15.302h-0.511h-0.51c-0.51,0-0.51,0-1.02,0
						c-0.511,0-1.021,0-1.53-0.51l-1.021-1.021l5.61-9.181c1.021-1.02,1.53-2.04,2.551-3.061c1.02-0.51,2.04-1.02,3.061-1.02
						c1.02,0,2.04,0,3.06,0c1.021,0.51,2.041,1.02,3.061,1.53l4.591,3.06c1.02,0.511,1.53,1.53,2.04,2.041
						c0.51,1.02,1.021,1.53,1.021,2.55c0,0.51,0.51,0.51,1.02,0.51c1.021-0.51,2.04-0.51,3.061,0c1.02,0,2.04,0.511,3.061,1.53
						l6.63,4.081C525.864,515.488,526.374,515.488,526.884,514.978C526.374,514.978,526.884,514.978,526.884,514.978z
						 M501.382,505.796c-1.021-0.51-2.04-1.02-3.061-1.02s-1.53,0.51-2.04,1.53l-1.53,2.55c-0.51,0.51,0,1.021,0,1.021l10.711,6.63
						h0.51c0,0,0.511,0,0.511-0.51l1.529-2.55c0.511-1.021,0.511-2.04,0.511-2.551c-0.511-1.02-1.021-1.53-2.04-2.04
						L501.382,505.796z"/>
					<path fill="#30ABE0" d="M528.414,487.945L528.414,487.945l-3.57,9.181l0,0l-3.57-1.53l0,0l3.57-8.671l0,0L528.414,487.945z"/>
				</g>
			</g>
			<g>
				<g>
					<path fill="#30ABE0" d="M224.423,454.791l1.53-0.51c0.51,0,1.021,0,1.53,0s0.51,0.51,1.021,0.51c0,0,0,0,0.51,0.51h0.51l0,0
						l26.013-4.59c1.53,0,2.551,0,3.57,0c1.021,0.51,2.04,1.02,2.551,1.53c1.02,0.51,1.53,1.529,2.04,2.55s1.02,2.04,1.02,3.57
						c0,1.021,0.511,2.551,0,3.57c-0.51,1.021-0.51,2.04-1.02,3.061c-0.51,1.02-1.021,1.53-2.04,2.55
						c-1.021,0.511-2.04,1.021-3.061,1.53l-26.013,4.591l0,0c-0.51,0-0.51,0-0.51,0.51c0,0,0,0.51-0.511,0.51
						c0,0.511-0.51,0.511-0.51,1.021c-0.51,0.51-1.02,0.51-1.53,0.51l-1.53,0.511l-1.529-8.671l1.529-0.511c0.511,0,1.021,0,1.53,0
						c0.511,0.511,1.021,0.511,1.021,0.511l0.51,0.51h0.51l25.503-4.591c1.53,0,2.04-1.02,2.551-1.53c0.51-1.02,0.51-2.04,0.51-3.06
						c0-1.021-0.51-1.53-1.53-2.551c-1.021-0.51-2.04-1.02-3.061-0.51l-25.502,4.591l0,0l0,0c-0.511,0-0.511,0-0.511,0.51
						c0,0,0,0.51-0.51,0.51c0,0.51-0.51,0.51-0.51,1.021c0,0-0.511,0-1.021,0l-1.53,0.51L224.423,454.791z"/>
					<path fill="#30ABE0" d="M223.913,424.188h1.53c0.51,0,1.02,0,1.53,0.511c0.51,0.51,0.51,0.51,1.02,1.02l0.511,0.511h0.51
						l32.644,0.51c0.51,0,0.51,0,1.02,0.51c0.511,0,0.511,0.51,0.511,1.021v3.06c0,0.511,0,1.021-0.511,1.021
						c-0.51,0-1.02,0.51-1.53,0.51c0,0-1.02,0.511-2.04,0.511c-1.02,0.51-2.55,1.02-4.59,1.53c-1.53,0.51-3.57,1.02-5.611,1.529
						c-2.04,0.511-3.57,1.021-5.101,1.53c-1.529,0.511-3.06,1.021-4.08,1.021c-1.02,0.51-1.53,0.51-1.53,0.51l0,0c0,0,0,0,0.511,0
						l19.892,0.51c0.51,0,0.51,0,1.021,0c0,0,0.51,0,0.51-0.51s0.51-0.51,1.02-1.02c0.511-0.511,1.021-0.511,1.53-0.511h1.53v8.161
						h-1.53c-0.51,0-1.02,0-1.53-0.51c-0.51-0.511-0.51-0.511-1.02-1.021c0,0,0-0.51-0.51-0.51h-0.511l-29.583-0.51
						c0,0.51-0.51,0.51-0.51,1.02c0,0-0.51,0.51-1.021,0.51c-0.51,0-1.02,0-1.529,0h-1.53v-6.12c0-0.51,0-0.51,0.51-1.021
						c0,0,0.51-0.51,1.021-0.51c0,0,0.51,0,1.529-0.51c1.021-0.511,2.551-0.511,4.081-1.021s3.57-1.02,5.61-1.53
						c2.04-0.51,4.08-1.02,5.61-1.53c2.04-0.51,3.57-1.02,4.591-1.53c1.53-0.51,2.04-0.51,2.55-1.02l0,0l0,0l-20.401-0.51
						c-0.511,0-0.511,0-0.511,0s-0.51,0-0.51,0.51s-0.51,0.51-1.021,1.02c-0.51,0.511-1.02,0.511-1.529,0.511h-1.53L223.913,424.188
						z"/>
					<path fill="#30ABE0" d="M259.617,413.988L259.617,413.988c0.51,0,0.51,0,1.02,0c0,0,0.51,0,0.51-0.511
						c0,0,0.511-0.51,1.021-0.51s1.021-0.51,1.53,0l1.53,0.51l-1.53,8.671h-1.53c-0.51,0-1.021-0.51-1.53-0.51s-0.51-1.53-0.51-2.04
						c0,0,0-0.51-0.51-0.51h-0.511l0,0l-28.563-4.591c-0.51,0-0.51,0-0.51,0s-0.511,0-0.511,0.51c0,0-0.51,0.51-1.02,0.51
						c-0.511,0-1.021,0.511-1.53,0h-1.53l1.53-8.671h1.53c0.51,0,1.02,0.511,1.53,0.511c0.51,0.51,0.51,0.51,0.51,1.02
						c0,0,0,0.511,0.51,0.511h0.51L259.617,413.988z"/>
					<path fill="#30ABE0" d="M235.134,376.753l1.53,0.51c0.511,0,1.021,0.511,1.021,1.021c0.51,0.51,0.51,0.51,0.51,1.021
						c0,0,0,0.51,0.51,0.51l0.511,0.51c5.61,2.551,10.201,5.101,14.791,7.141c2.04,1.021,3.57,2.041,5.611,2.551
						c1.529,1.02,3.57,1.53,4.59,2.55c1.53,0.511,2.551,1.021,3.57,1.53c1.021,0.51,1.53,0.51,1.53,0.51l0.51,0.511
						c0,0.51,0,0.51,0,1.02l-1.53,5.101c-0.51,1.021-1.02,1.021-1.529,1.021c-1.021,0-2.551-0.51-4.591-0.51
						c-2.04-0.511-4.08-0.511-6.631-1.021c-2.55-0.51-5.101-0.51-7.141-1.021c-2.55-0.51-4.591-0.51-7.141-1.02
						c-2.04-0.51-3.57-0.51-5.101-0.51s-2.04-0.511-2.04-0.511c-0.51,0-0.51,0-1.021,0h-0.51c0,0-0.51,0.511-1.021,0.511
						c-0.51,0-1.02,0-1.53,0l-1.529-0.511l2.55-7.65l1.53,0.51c0.51,0,1.021,0.51,1.53,1.021c0.51,0.51,0.51,0.51,0.51,1.02
						c0,0,0,0.511,0.51,0.511c0.511,0,0.511,0,0.511,0c5.61,1.02,10.201,1.529,14.281,2.55c2.04,0.51,3.57,0.51,5.101,1.021
						c1.53,0.51,3.061,0.51,4.59,0.51c1.53,0,3.061,0.51,4.591,0.51c0,0-0.51,0-1.02-0.51c-0.511-0.51-1.53-1.021-3.061-1.53
						c-1.021-0.51-2.551-1.53-4.081-2.04c-1.529-0.51-3.06-1.53-4.59-2.551c-4.081-2.04-8.161-4.08-13.262-6.63
						c-0.51,0-0.51,0-0.51,0h-0.51c0,0-0.511,0.51-1.021,0.51s-1.021,0-1.53,0l-1.53-0.51L235.134,376.753z"/>
					<path fill="#30ABE0" d="M246.355,364.002C246.355,364.002,246.355,364.512,246.355,364.002l10.201,5.61
						c0.51,0,0.51,0,1.02-0.51l3.061-5.61c0,0,0-0.511,0.51-0.511h0.511l2.55,1.53c0.51,0,0.51,0.51,0.51,1.021l-3.57,5.61
						c0,0.51,0,1.021,0.511,1.021l10.711,5.61c0.51,0,0.51,0,1.02,0l2.551-4.591c0-0.51,0-0.51-0.51-1.02
						c-0.511-0.511-0.511-0.511-1.021-1.021s0-1.021,0.51-2.04l1.021-1.53l4.591,2.55c0.51,0,0.51,0.511,0.51,1.021s0,0.51,0,1.021
						l-1.53,3.06l-4.591,9.182l-1.53,2.04l-1.02-0.511c-0.51-0.51-1.021-0.51-1.53-1.02s-0.51-1.021-0.51-1.021
						c0-0.51,0-1.02-0.511-1.02l-25.502-13.771c-0.511,0-0.511,0-0.511,0h-0.51c-0.51,0-0.51,0.51-1.02,0.51
						c-0.511,0-1.021,0-1.53-0.51l-1.53-0.511l7.65-14.281c0-0.51,0.511-0.51,1.021-0.51s0.51,0,1.02,0l5.101,2.55l-1.02,1.53
						c-0.511,0.511-0.511,1.021-1.021,1.53s-1.02,0.51-1.53,0h-0.51c0,0-0.51,0-0.51,0.51l-2.551,4.591
						C246.355,363.492,246.355,363.492,246.355,364.002z"/>
					<path fill="#30ABE0" d="M292.26,350.231c0.511,0,0.511,0,1.021,0s1.02,0,1.53,0.51l1.53,1.021l-2.551,3.57
						c-0.51,0.51-1.02,1.02-2.04,1.02c-0.51,0-1.021,0-2.04-0.51l-8.161-6.12c-1.02-0.511-2.04-1.021-2.55-1.021
						c-1.021,0-1.53,0.51-2.551,1.021l-2.04,2.55c-0.51,0.51,0,0.51,0,1.021l8.671,6.631c0.51,0,0.51,0.51,0.51,0.51h0.511
						c0.51,0,0.51,0,1.02,0s1.021,0,1.53,0.51l1.021,1.021l-5.611,6.63l-1.02-1.02c-0.51-0.51-0.51-1.021-1.021-1.021
						c0-0.51,0-1.02,0-1.02v-0.511c0,0,0-0.51-0.51-0.51l-21.933-18.872l-0.51-0.51h-0.51c-0.51,0-0.51,0-1.021,0
						c-0.51,0-1.02-0.51-1.53-0.51l-1.02-1.021l6.631-8.161c1.02-1.02,2.04-2.04,3.06-2.55c1.021-0.51,2.04-1.021,3.061-1.021
						s2.04,0,3.061,0.511c1.02,0.51,2.04,1.02,3.061,2.04l4.08,3.57c1.02,0.51,1.53,1.53,2.04,2.55
						c0.51,1.021,0.51,2.041,0.51,2.551s0.511,0.51,1.021,0.51c1.021,0,2.04,0,3.061,0c1.02,0,2.04,1.021,3.06,1.53l6.121,4.591
						C291.75,350.231,291.75,350.231,292.26,350.231L292.26,350.231z M267.777,337.99c-1.02-0.51-2.04-1.021-2.55-1.021
						c-0.511,0-1.53,0.511-2.551,1.021l-1.53,2.55c-0.51,0.511-0.51,1.021,0,1.021l9.691,7.65h0.51h0.511l2.04-2.55
						c0.51-1.021,1.02-1.53,0.51-2.551c0-1.02-1.021-1.529-2.04-2.55L267.777,337.99z"/>
					<path fill="#30ABE0" d="M284.609,325.239c0.51,0.51,1.02,1.02,2.04,1.02s2.04,0,3.061,0c1.02,0,2.55-0.51,3.57-0.51
						c1.53,0,2.55-0.51,4.08-0.51s2.551,0,3.57,0.51c1.021,0.51,2.04,1.02,3.061,2.04l3.57,4.08c1.021,1.021,1.53,2.041,1.53,3.061
						c0,1.021,0.51,2.04,0,3.061c0,1.02-0.51,2.04-1.53,3.061c-0.51,1.02-1.53,2.04-2.55,2.55c-1.021,1.021-2.041,1.53-3.061,2.04
						c-1.021,0.511-2.04,1.021-3.061,1.021c-1.02,0-2.04,0-3.061-0.51c-1.02-0.511-2.04-1.021-3.06-2.041l-2.041-3.06l2.041-1.53
						c0.51-0.511,1.529-1.021,2.04-1.021c0.51,0,1.02,0.51,1.53,1.021l1.53,1.53c0.51,0.51,0.51,0.51,1.02,0.51s1.021,0,1.53,0
						s1.021,0,1.53-0.51c0.51-0.511,1.02-0.511,1.02-1.021c0.511-0.51,0.511-0.51,1.021-1.021c0.51-0.51,0.51-1.02,0.51-1.529
						c0-0.511,0-1.021,0-1.53c0-0.511,0-1.021-0.51-1.021l-3.57-4.08c-0.51-1.021-1.53-1.53-2.55-1.53c-1.021,0-2.041,0-3.061,0
						c-1.021,0-2.551,1.02-4.081,1.02c-1.02,0-2.55,0.511-3.57,0.511c-1.02,0-2.55,0-3.57-0.511c-1.02-0.51-2.04-1.02-3.06-2.04
						l-2.551-3.06c-1.02-1.021-1.53-2.041-2.04-3.061c-0.51-1.021-0.51-2.04,0-3.061c0-1.021,0.51-2.04,1.021-3.061
						c0.51-1.02,1.529-2.04,2.55-2.55c1.021-1.021,2.04-1.53,3.061-2.04c1.02-0.511,2.04-0.511,3.06-1.021
						c1.021,0,2.041,0,3.061,0.51c1.021,0.511,2.04,1.021,2.551,2.041l2.55,3.06l-1.53,1.53c-0.51,0.51-1.53,1.021-2.04,1.021
						c-1.02,0-1.53-0.511-2.04-1.021l-1.021-1.53c-0.51-0.51-0.51-0.51-1.02-0.51c-0.511,0-1.021,0-1.021,0
						c-0.51,0-1.02,0-1.02,0.51c-0.511,0-0.511,0.511-1.021,0.511s-0.51,0.51-1.021,1.02c0,0.51-0.51,0.51-0.51,1.021
						c0,0.51,0,1.02,0,1.02c0,0.511,0,0.511,0.51,1.021L284.609,325.239z"/>
					<path fill="#30ABE0" d="M318.783,327.279L318.783,327.279c0,0.51,0.51,0.51,0.51,0.51h0.51c0.51,0,0.51,0,1.021,0.51
						c0.51,0,1.02,0.511,1.02,1.021l1.021,1.53l-7.141,4.59l-1.021-1.529c-0.51-0.511-0.51-1.021-0.51-1.53c0-0.511,0-1.021,0-1.021
						v-0.51v-0.511l0,0l-15.812-23.972c0-0.511-0.51-0.511-0.51-0.511h-0.511c-0.51,0-0.51,0-1.02-0.51
						c-0.511,0-1.021-0.51-1.021-1.02l-1.021-1.021l7.142-4.591l1.02,1.021c0.51,0.51,0.51,1.021,0.51,1.53s0,1.02,0,1.02v0.511
						c0,0,0,0.51,0.511,0.51L318.783,327.279z"/>
					<path fill="#30ABE0" d="M329.494,284.434c0.51,0,1.02,0.511,1.02,1.53l0.511,1.53l1.02,2.551l-2.55,1.02
						c-0.511,0-1.021,0-1.021,0c-0.51,0-0.51-0.51-1.02-1.02c0-0.511-0.511-0.511-1.021-0.511l-2.551,1.021c0,0-0.51,0-0.51,0.51
						v0.51l11.731,26.013c0,0.51,0.51,0.51,0.51,0.51h0.51c0.511,0,0.511,0,1.021,0.511c0.51,0,0.51,0.51,1.021,1.02l0.51,1.53
						l-7.65,3.57l0.51-0.51c0-0.51-0.51-1.021,0-1.53c0-0.51,0-1.02,0.51-1.02v-0.511v-0.51l-11.731-26.522c0,0,0-0.51-0.51-0.51
						h-0.51l-2.551,1.02c0,0,0,0-0.51,0.511v0.51c0,0.51,0.51,1.02,0,1.53c0,0.51-0.51,1.02-1.53,1.02l-2.04,1.021l-1.53-3.061
						l-0.51-1.53c-0.51-0.51-0.51-1.53,0-2.04s1.02-1.021,1.53-1.021l15.302-7.141C328.473,284.434,328.983,284.434,329.494,284.434
						z"/>
					<path fill="#30ABE0" d="M347.345,283.414v0.51l2.55,10.711c0,0.511,0.511,0.511,1.021,0.511l6.12-1.53h0.511
						c0,0,0.51,0,0.51,0.51l0.51,3.061c0,0.51,0,1.02-0.51,1.02l-6.12,1.53c-0.511,0-0.511,0.51-0.511,1.021l3.061,11.73
						c0,0.511,0.51,0.511,1.021,0.511l5.101-1.021c0.51,0,0.51-0.51,0.51-1.021c0-0.51,0-1.02,0.51-1.53
						c0.51-0.51,1.021-0.51,1.53-1.02l2.04-0.51l1.021,5.101c0,0.51,0,0.51,0,1.02s-0.511,0.51-1.021,0.51l-3.061,1.021l-10.2,2.55
						l-3.061,0.511l-0.51-1.53c0-0.51,0-1.53,0-1.53c0-0.51,0.51-1.021,0.51-1.021c0.51-0.51,0.51-0.51,0.51-1.02l-6.631-28.053
						c0-0.51,0-0.51-0.51-0.51c0,0-0.51,0-0.51-0.511c-0.511,0-0.511-0.51-1.021-0.51c-0.51-0.51-0.51-1.021-0.51-1.53l-0.51-1.53
						l15.812-4.08c0.51,0,0.51,0,1.02,0c0.511,0,0.511,0.51,0.511,0.51l1.529,5.61l-2.04,0.511c-0.51,0-1.53,0-2.04,0
						s-1.021-0.511-1.021-1.021c0,0,0-0.51-0.51-0.51h-0.51L347.345,283.414C347.855,283.414,347.855,283.414,347.345,283.414z"/>
					<path fill="#30ABE0" d="M407.532,275.253c0.51,0.51,0.51,1.021,0.51,2.04v1.53v3.061h-3.061c-0.51,0-1.02,0-1.02-0.51
						c-0.511-0.511-0.511-1.021-0.511-1.53c0-0.511,0-0.511-0.51-0.511h-2.551h-0.51h-0.51l-1.53,28.563c0,0.51,0,0.51,0,0.51
						s0,0.51,0.51,0.51c0.511,0,0.511,0.51,0.511,1.021c0,0.51,0.51,1.02,0.51,1.53v1.53l-8.671-0.511v-1.53
						c0-0.51,0-1.02,0.51-1.53c0.51-0.51,0.51-0.51,1.021-1.02l0.51-0.51v-0.511l1.53-29.072v-0.51h-0.51h-2.041h-0.51l-0.51,0.51
						c0,0.51,0,1.02-0.51,1.53c-0.511,0.51-1.021,0.51-1.53,0.51h-2.551v-3.061v-1.53c0-1.02,0.511-1.53,0.511-1.53
						c0.51-0.51,1.02-0.51,2.04-0.51l16.831,1.021C406.511,274.743,407.021,274.743,407.532,275.253z"/>
					<path fill="#30ABE0" d="M417.222,317.077c-1.02-0.51-2.55-0.51-3.57-1.53c-1.02-0.51-2.04-1.021-2.55-2.04
						c-0.511-1.021-1.021-2.04-1.53-3.061c-0.511-1.021,0-2.04,0-3.57l5.61-23.462c0.51-1.021,1.021-2.551,1.53-3.061
						c0.51-1.021,1.53-1.53,2.55-2.04c1.021-0.51,2.04-0.51,3.061-0.51s2.551,0,3.57,0.51c1.021,0.51,2.551,0.51,3.57,1.53
						c1.021,0.51,2.04,1.02,2.551,2.04c0.51,1.02,1.02,1.53,1.02,3.061c0,1.02,0,2.04,0,3.57l-5.61,23.462
						c-0.51,1.021-1.02,2.55-1.53,3.061c-0.51,0.51-1.53,1.53-2.55,2.04c-1.021,0.51-2.041,0.51-3.061,0.51
						C419.262,317.587,418.243,317.587,417.222,317.077z M428.444,286.985c0-0.51,0-1.021,0-1.53s-0.511-1.021-0.511-1.53
						s-0.51-0.51-1.02-1.021c-0.51,0-1.021-0.51-1.53-0.51s-1.021,0-1.53,0s-1.02,0-1.53,0.51c-0.51,0-1.021,0.511-1.021,1.021
						c-0.51,0.51-0.51,1.021-1.02,1.53l-5.61,22.952c0,0.51,0,1.02,0,1.53c0,0.51,0.51,1.02,0.51,1.53
						c0.51,0.51,0.51,0.51,1.021,1.02c0.51,0,1.02,0.511,1.529,0.511c0.511,0,1.021,0,1.53,0c0.511,0,1.021,0,1.53-0.511
						c0.51,0,1.021-0.51,1.021-1.02c0.51-0.511,0.51-1.021,1.021-1.53L428.444,286.985z"/>
					<path fill="#30ABE0" d="M465.168,293.615l-0.51,1.02c0,0.511-0.511,1.021-1.021,1.021s-0.51,0.51-1.021,0.51h-0.51
						c0,0-0.51,0-0.51,0.51l0,0l-11.222,23.973c-0.51,1.021-1.02,2.04-2.04,3.061c-1.02,0.51-1.53,1.02-2.55,1.53
						c-1.021,0-2.04,0.51-3.061,0c-1.021,0-2.04-0.511-3.57-1.021c-1.021-0.51-2.04-1.021-3.061-2.04
						c-1.02-0.51-1.53-1.53-2.04-2.551c-0.51-1.02-0.51-2.04-0.51-3.06c0-1.021,0.51-2.041,1.02-3.57l11.222-23.973l0,0
						c0-0.51,0-0.51,0-0.51v-0.511c0-0.51-0.511-0.51-0.511-1.02s0-1.021,0-1.53l0.511-1.53l8.161,3.57l-1.021,2.04
						c0,0.511-0.51,1.021-1.021,1.021c-0.51,0-1.02,0.51-1.02,0.51h-0.511l-0.51,0.51l-11.221,23.973
						c-0.511,1.021-0.511,2.55,0,3.061c0.51,1.02,1.02,1.53,2.04,2.04c1.02,0.51,2.04,0.51,3.061,0c1.02,0,2.04-1.021,2.55-2.04
						l10.711-23.462l0,0l0,0v-0.511v-0.51c0-0.51-0.51-0.51-0.51-1.021c0-0.51,0-1.02,0-1.53l0.51-1.529L465.168,293.615z"/>
					<path fill="#30ABE0" d="M469.758,334.419l-3.06,4.59c0,0.511-0.511,0.511-1.021,0.511s-0.51,0-1.02,0l-1.021-0.511
						l-12.751-8.671l1.02-1.02c0.511-0.51,1.021-1.021,1.021-1.021c0.51,0,1.02-0.51,1.02,0h0.511c0,0,0.51,0,0.51-0.51
						l16.321-23.462c0-0.511,0.511-0.511,0.511-0.511v-0.51c0-0.51,0-0.51,0-1.021c0-0.51,0-1.02,0.51-1.53l1.02-1.529l7.142,5.101
						h-1.021c-0.51,0.51-0.51,1.02-1.02,1.02c-0.511,0-1.021,0-1.021,0h-0.51c0,0-0.511,0-0.511,0.51l-16.321,23.463l-0.51,0.51
						v0.51l3.57,2.551h0.51c0,0,0.51,0,0.51-0.51c0.511-0.511,1.021-1.021,1.53-1.021s1.021,0.51,2.04,1.021L469.758,334.419z"/>
					<path fill="#30ABE0" d="M474.858,349.721c-1.02-1.021-1.529-2.041-2.04-3.061c-0.51-1.021-1.02-2.04-1.02-3.061
						c0-1.02,0-2.04,0.51-3.061c0.51-1.02,1.021-2.04,2.04-3.06l16.832-17.342c1.02-1.021,2.04-1.53,3.061-2.041
						c1.02-0.51,2.04-0.51,3.06-0.51c1.021,0,2.041,0.51,3.061,1.021c1.021,0.51,2.04,1.53,3.061,2.04
						c1.02,1.021,1.53,2.04,2.04,3.061c0.51,1.02,1.021,2.04,1.021,3.06c0,1.021,0,2.041-0.511,3.061
						c-0.51,1.021-1.02,2.04-2.04,3.061l-16.832,17.342c-1.02,1.02-2.04,1.53-3.06,2.04c-1.021,0.51-2.04,0.51-3.061,0.51
						s-2.04-0.51-3.061-1.02C476.388,351.25,475.369,350.231,474.858,349.721z M499.851,329.828c0.51-0.51,1.02-1.02,1.02-1.53
						c0-0.51,0-1.02,0-1.53c0-0.51,0-1.02-0.51-1.529c0-0.511-0.51-1.021-1.02-1.021c-0.511-0.51-0.511-0.51-1.021-1.021
						c-0.51,0-1.021-0.51-1.53-0.51s-1.02,0-1.53,0c-0.51,0-1.02,0.51-1.53,1.021l-16.831,16.831
						c-0.511,0.511-1.021,1.021-1.021,1.53c0,0.511,0,1.021,0,1.53s0,1.021,0.51,1.53c0,0.51,0.511,1.021,1.021,1.021
						c0.51,0.51,0.51,0.51,1.02,1.02c0.511,0,1.021,0.51,1.53,0.51c0.511,0,1.021,0,1.53,0c0.511,0,1.021-0.51,1.53-1.02
						L499.851,329.828z"/>
					<path fill="#30ABE0" d="M527.904,353.801l-1.53,1.021c-0.51,0.51-1.021,0.51-1.53,0.51s-1.02,0-1.02,0h-0.511h-0.51l0,0
						l-21.933,14.791c-1.02,0.511-2.04,1.021-3.06,1.53c-1.021,0.511-2.041,0-3.061,0c-1.021-0.51-2.04-1.02-2.551-1.53
						c-1.02-0.51-1.53-1.53-2.55-2.55c-1.021-1.021-1.021-2.04-1.53-3.061c-0.51-1.02-0.51-2.04-0.51-3.061
						c0-1.02,0.51-2.04,1.02-3.06c0.511-1.021,1.53-2.041,2.551-2.551l21.932-14.791l0,0c0.511,0,0.511-0.511,0.511-0.511v-0.51
						c0-0.51,0-0.51,0.51-1.021c0-0.51,0.51-1.02,1.021-1.02l1.529-1.021l5.101,7.141l-1.529,1.021
						c-0.511,0.51-1.021,0.51-1.53,0.51c-0.511,0-1.021,0-1.021,0h-0.51c0,0-0.511,0-0.511,0.511l-21.422,14.791
						c-1.02,0.51-1.53,1.53-1.53,2.551c0,1.02,0,2.04,0.511,2.55c0.51,1.021,1.529,1.53,2.55,1.53c1.021,0.51,2.04,0,3.061-0.51
						l21.422-14.792l0,0l0,0l0.51-0.51v-0.511c0-0.51,0-0.51,0.511-1.02c0-0.51,0.51-1.021,1.02-1.021l1.53-1.02L527.904,353.801z"
						/>
					<path fill="#30ABE0" d="M524.334,372.673c-0.51,0.51-1.021,1.02-1.53,1.53c-0.51,1.02-0.51,2.04-0.51,3.06
						c0,1.021-0.511,2.551-0.511,3.571c0,1.529-0.51,2.55-1.02,4.08c-0.51,1.02-1.021,2.55-1.53,3.57
						c-0.51,1.02-1.53,2.04-3.061,2.55l-4.59,2.041c-1.021,0.51-2.551,0.51-3.57,0.51c-1.021,0-2.041-0.51-3.061-1.021
						c-1.021-0.51-1.53-1.02-2.551-2.04c-0.51-1.021-1.53-2.04-2.04-3.061c-0.51-1.02-1.02-2.55-1.02-3.57c0-1.02,0-2.04,0-3.57
						c0-1.02,0.51-2.04,1.529-3.061c0.511-1.02,1.53-1.529,3.061-2.04l3.57-1.53l1.021,2.551c0.51,1.02,0.51,1.53,0,2.04
						c0,0.51-0.51,1.021-1.53,1.53l-2.04,1.021c-0.511,0-0.511,0.51-1.021,1.02c0,0.51-0.51,1.021-0.51,1.021c0,0.51,0,1.02,0,1.53
						c0,0.51,0,1.02,0.51,1.529c0,0.511,0.51,1.021,1.021,1.021c0.51,0.51,0.51,0.51,1.02,1.021c0.511,0.51,1.021,0.51,1.021,0.51
						c0.51,0,1.02,0,1.53,0l5.101-2.04c1.02-0.511,2.04-1.021,2.55-2.04c0.51-1.021,1.021-2.041,1.021-3.061
						c0-1.021,0.51-2.551,0.51-3.57c0-1.53,0.51-2.551,0.51-3.57c0.511-1.021,1.021-2.551,1.53-3.061
						c0.511-1.021,1.53-2.04,3.061-2.551l3.57-1.529c1.021-0.511,2.55-1.021,3.57-1.021s2.04,0,3.061,0.51
						c1.02,0.511,1.53,1.021,2.55,2.04c0.511,1.021,1.53,2.041,2.04,3.061c0.511,1.021,1.021,2.551,1.021,3.57
						c0,1.021,0,2.04,0,3.061c-0.51,1.021-0.51,2.04-1.53,2.55c-0.51,1.021-1.53,1.53-3.061,2.041l-3.57,1.53l-1.02-2.041
						c-0.511-1.02-0.511-1.53,0-2.55c0.51-1.021,1.02-1.53,1.53-1.53l1.53-1.021c0.51,0,0.51-0.51,1.02-1.02
						c0-0.51,0.51-0.51,0.51-1.021c0-0.51,0-1.02,0-1.02c0-0.511,0-1.021-0.51-1.021c0-0.51-0.51-0.51-0.51-1.021
						c-0.51-0.51-0.51-0.51-1.021-1.02c-0.51-0.51-0.51-0.51-1.02-0.51c-0.511,0-0.511,0-1.021,0L524.334,372.673z"/>
					<path fill="#30ABE0" d="M540.655,397.156h-0.51l-10.711,2.55c-0.51,0-0.51,0.511-0.51,1.021l1.529,6.12v0.511
						c0,0,0,0.51-0.51,0.51l-3.061,0.51c-0.51,0-1.02,0-1.02-0.51l-1.53-6.12c0-0.511-0.51-0.511-1.021-0.511l-11.73,3.061
						c-0.511,0-0.511,0.51-0.511,1.021l1.021,5.1c0,0.511,0.51,0.511,1.02,0.511c0.511,0,1.021,0,1.53,0.51
						c0.511,0.51,0.511,1.021,1.021,1.53l0.51,2.04l-5.101,1.021c-0.51,0-0.51,0-1.02,0c-0.511,0-0.511-0.511-0.511-1.021
						l-1.02-3.061l-2.04-10.2l-0.511-3.061l1.53-0.51c0.511,0,1.53,0,1.53,0c0.51,0,1.021,0.51,1.021,0.51
						c0.51,0.51,0.51,0.51,1.02,0.51l28.053-6.631c0.511,0,0.511,0,0.511-0.51c0,0,0-0.51,0.51-0.51c0-0.511,0.51-0.511,0.51-1.021
						c0.511-0.51,1.021-0.51,1.53-0.51l1.53-0.51l4.08,15.812c0,0.51,0,0.51,0,1.02s-0.51,0.51-0.51,0.51l-5.61,1.53l-0.51-2.04
						c0-0.51,0-1.53,0-2.04s0.51-1.021,1.02-1.021c0,0,0.51,0,0.51-0.51v-0.51L540.655,397.156
						C541.166,397.665,541.166,397.156,540.655,397.156z"/>
					<path fill="#30ABE0" d="M516.683,441.53L516.683,441.53c-0.511,0-0.511,0-1.021,0c0,0-0.51,0-0.51,0.511
						c0,0.51-0.511,0.51-1.021,1.02c-0.51,0.511-1.02,0.511-1.53,0.511h-1.53V434.9h1.53c0.51,0,1.021,0,1.53,0.51
						c0.51,0,0.51,0.51,1.021,1.02c0,0,0,0.511,0.51,0.511h0.51l0,0l29.073,0.51c0.51,0,0.51,0,0.51,0s0.51,0,0.51-0.51
						c0-0.511,0.511-0.511,1.021-1.021s1.021-0.51,1.53-0.51h1.53v8.671h-1.53c-0.51,0-1.021,0-1.53-0.51
						c-0.51-0.511-0.51-0.511-1.021-1.021l-0.51-0.51h-0.51L516.683,441.53z"/>
					<path fill="#30ABE0" d="M515.663,454.281L515.663,454.281c-0.51,0-0.51,0-1.021,0c0,0-0.51,0-0.51,0.51
						c0,0-0.51,0.51-1.021,0.51c-0.51,0-1.02,0.511-1.529,0h-1.53l1.02-8.671h1.53c0.51,0,1.021,0,1.53,0.511
						c0.51,0.51,0.51,0.51,1.021,1.02c0,0,0,0.51,0.51,0.51h0.51l0,0l28.563,3.061c0.51,0,0.51,0,0.51,0s0.51,0,0.51-0.51
						s0.51-0.51,1.021-0.51c0.51,0,1.02-0.511,1.53,0h1.529l-1.02,8.671h-1.53c-0.51,0-1.021-0.511-1.53-0.511
						c-0.51-0.51-0.51-0.51-1.02-1.02c0,0,0-0.511-0.511-0.511h-0.51L515.663,454.281z"/>
					<path fill="#30ABE0" d="M513.112,467.542L513.112,467.542c-0.51,0-0.51,0-1.02,0s-0.51,0-0.51,0.511
						c-0.511,0-0.511,0.51-1.021,0.51s-1.021,0-1.53,0l-1.021-0.51l2.041-8.671l1.53,0.51c0.51,0,1.02,0.51,1.529,0.51
						c0.511,0.511,0.511,0.511,0.511,1.021c0,0,0,0.51,0.51,0.51c0,0,0.51,0,0.51,0.51l0,0l28.053,6.121c0.511,0,0.511,0,0.511,0
						s0.51,0,0.51-0.51c0.51,0,0.51-0.511,1.021-0.511c0.51,0,1.02,0,1.529,0l1.53,0.511l-2.04,8.671l-1.53-0.511
						c-0.51,0-1.02-0.51-1.53-0.51c-0.51-0.51-0.51-0.51-0.51-1.021c0,0,0-0.51-0.51-0.51c0,0-0.51,0-0.51-0.51L513.112,467.542z"/>
				</g>
			</g>
			<g>
				<rect x="399.881" y="412.967" fill="#30ABE0" width="8.671" height="48.965"/>
				<rect x="372.338" y="412.967" fill="#30ABE0" width="8.671" height="48.965"/>
				<rect x="386.109" y="412.967" fill="#30ABE0" width="8.671" height="48.965"/>
				<path fill="#30ABE0" d="M387.13,321.668c-64.267,0-116.292,52.024-116.292,116.291c0,63.757,52.025,116.292,116.292,116.292
					s116.292-52.025,116.292-116.292S450.886,321.668,387.13,321.668z M387.13,547.111c-60.187,0-109.661-48.965-109.661-109.661
					c0-60.187,48.965-109.661,109.661-109.661c60.187,0,109.661,48.965,109.661,109.661S447.316,547.111,387.13,547.111z"/>
				<path fill="#30ABE0" d="M414.673,455.301c2.55,2.041,4.08,5.101,4.08,8.161c0,5.61-4.591,10.711-10.711,10.711h-47.435v45.905
					c-34.684-11.731-59.677-43.865-59.677-82.119c0-46.414,36.724-84.158,83.139-86.198v19.892h-17.852
					c-22.442,0-40.294,18.362-40.294,40.294c0,21.933,17.852,40.295,39.784,40.295v-6.631
					c-18.362-0.511-33.664-15.302-33.664-33.664c0-18.871,15.302-33.663,33.664-33.663h24.482v-26.522v-6.631
					c-1.021,0-2.041,0-3.57,0c-1.021,0-2.041,0-3.57,0c-49.476,1.53-89.77,42.845-89.77,92.829
					c0,41.824,28.053,77.528,66.307,88.749c2.04,0.511,4.591,1.021,6.631,1.53v-6.631v-41.313h40.804
					c9.691,0,17.343-7.651,17.343-17.342c0-7.141-4.081-13.262-10.712-15.812L414.673,455.301L414.673,455.301z"/>
				<path fill="#30ABE0" d="M387.13,333.399c-57.636,0-104.561,46.925-104.561,104.561S329.494,542.52,387.13,542.52
					S491.69,495.595,491.69,437.959S444.765,333.399,387.13,333.399z M387.13,535.379c-2.551,0-5.61,0-8.161-0.51v-5.101v-6.631
					v-31.623h29.073c15.812,0,29.073-12.751,29.073-29.073c0-13.771-9.182-24.992-21.933-28.053v6.631
					c9.181,3.061,15.302,11.222,15.302,21.422c0,12.241-10.201,22.442-22.442,22.442h-35.704v37.234v7.141v5.101
					c-46.925-7.141-83.138-47.945-83.138-96.91c0-54.065,43.864-97.93,97.93-97.93c3.061,0,5.61,0,8.16,0.51v5.101v6.631v31.113
					h-29.072c-15.812,0-29.073,12.751-29.073,29.072c0,15.812,12.751,28.563,28.563,29.073v-6.631
					c-12.241-0.51-21.932-10.201-21.932-22.442s10.201-22.442,22.442-22.442h35.703v-36.724v-6.63v-5.101
					c46.925,7.141,83.139,47.944,83.139,96.909C485.059,491.515,441.195,535.379,387.13,535.379z"/>
				<path fill="#30ABE0" d="M413.652,348.7c-2.04-0.51-4.591-1.021-6.631-1.53v6.631v40.804h-40.804
					c-9.691,0-17.342,7.651-17.342,17.342c0,9.182,7.65,16.832,16.831,17.342v-6.63c-5.61-0.511-10.2-5.101-10.2-10.712
					c0-5.61,4.59-10.711,10.711-10.711h47.435v-45.904c34.684,11.221,59.677,43.864,59.677,82.118
					c0,46.415-36.725,84.158-83.139,86.199v-19.893h17.852c22.442,0,40.294-18.361,40.294-40.294
					c0-19.892-14.791-36.724-33.663-39.784v6.631c15.302,3.061,27.032,16.832,27.032,33.153c0,18.872-15.301,33.663-33.663,33.663
					h-24.482v27.033v6.631c1.02,0,2.04,0,3.57,0c1.02,0,2.04,0,3.57,0c49.476-1.53,89.77-42.845,89.77-92.83
					C479.959,395.625,451.906,360.432,413.652,348.7z"/>
			</g>
			<path fill="#30ABE0" d="M563.097,527.219c-5.101-13.262,8.161-17.853,8.161-17.853c11.731-7.65,6.631-20.401,6.631-20.401
				c-7.651-11.731,4.08-19.383,4.08-19.383c9.691-9.69,2.04-21.422,2.04-21.422c-9.69-9.69,0-19.892,0-19.892
				c7.651-11.731-2.04-21.423-2.04-21.423c-11.731-7.65-4.08-19.382-4.08-19.382c5.101-13.261-6.631-20.401-6.631-20.401
				c-13.262-5.101-8.161-17.853-8.161-17.853c2.04-13.771-10.711-18.872-10.711-18.872c-13.771-2.04-11.731-15.812-11.731-15.812
				c-0.51-13.771-14.281-16.321-14.281-16.321c-13.771,1.021-14.791-13.261-14.791-13.261
				c-3.571-13.771-17.342-12.752-17.342-12.752c-13.262,3.57-16.832-9.69-16.832-9.69c-6.121-12.752-19.893-8.671-19.893-8.671
				c-12.751,5.61-18.871-6.631-18.871-6.631c-8.671-10.711-21.423-4.591-21.423-4.591c-10.711,8.671-19.382-2.04-19.382-2.04
				c-10.711-8.671-21.422,0-21.422,0c-8.671,10.711-19.382,2.04-19.382,2.04c-12.242-6.63-21.423,4.591-21.423,4.591
				c-6.12,12.241-18.872,6.12-18.872,6.12c-13.261-3.57-19.892,8.671-19.892,8.671c-3.57,13.771-16.832,9.691-16.832,9.691
				c-13.771-1.021-17.342,12.751-17.342,12.751c-0.51,13.771-14.791,13.262-14.791,13.262c-13.771,2.04-14.281,16.321-14.281,16.321
				c2.04,13.771-11.731,15.812-11.731,15.812c-13.262,5.101-10.711,18.872-10.711,18.872c5.101,13.262-8.161,17.852-8.161,17.852
				c-11.731,7.651-6.631,20.402-6.631,20.402c7.651,11.731-4.08,19.382-4.08,19.382c-9.691,9.691-2.04,21.422-2.04,21.422
				c9.69,9.691,0,19.893,0,19.893c-7.651,11.731,2.04,21.422,2.04,21.422c11.731,7.651,4.08,19.382,4.08,19.382
				c-5.101,13.262,6.631,20.402,6.631,20.402c13.262,5.101,8.161,17.852,8.161,17.852c-2.04,13.771,10.711,18.872,10.711,18.872
				c13.771,2.04,11.731,15.812,11.731,15.812c0.51,13.771,14.281,16.322,14.281,16.322c13.771-1.021,14.791,13.261,14.791,13.261
				c3.57,13.771,17.342,12.752,17.342,12.752c13.262-3.57,16.832,9.69,16.832,9.69c6.12,12.241,19.892,8.671,19.892,8.671
				c12.241-6.631,18.872,6.121,18.872,6.121c8.671,10.711,21.423,4.59,21.423,4.59c10.711-8.671,19.382,2.04,19.382,2.04
				c10.711,8.671,21.422,0,21.422,0c8.671-10.711,19.382-2.04,19.382-2.04c12.241,6.631,21.423-4.59,21.423-4.59
				c6.12-12.752,18.872-6.121,18.872-6.121c13.771,3.57,19.892-8.671,19.892-8.671c3.57-13.771,16.832-9.69,16.832-9.69
				c13.771,1.02,17.342-12.752,17.342-12.752c0.51-13.771,14.791-13.261,14.791-13.261c13.771-2.041,14.281-16.322,14.281-16.322
				c-2.04-13.771,11.731-15.812,11.731-15.812C565.648,540.99,563.097,527.219,563.097,527.219z M387.13,610.867
				c-95.38,0-172.908-77.528-172.908-172.908c0-95.379,77.528-173.417,172.908-173.417s172.907,77.527,172.907,172.907
				C560.037,533.339,482.51,610.867,387.13,610.867z"/>
			<path fill="#30ABE0" d="M651.846,395.625h-53.556H581.46c0,2.04,1.02,4.08,4.08,5.61l1.021,0.511
				c4.59,4.59,11.221,16.321,3.06,28.563l-0.51,1.02c-1.53,2.041-5.101,6.631,0,11.731l0.51,1.021
				c3.57,5.61,7.142,18.361-3.06,28.563l-1.021,0.511c-1.53,1.02-3.57,3.06-4.08,5.61h23.972h46.415l-23.462-41.824L651.846,395.625
				z M616.143,445.1l-7.141-3.57l-7.142,3.57l1.53-8.16l-5.61-5.61l8.161-1.021l3.57-7.141l3.57,7.141l8.161,1.021l-5.611,5.61
				L616.143,445.1z"/>
		</g>
	</g>
	
		<line fill="none" stroke="#FFFFFF" stroke-width="3" stroke-miterlimit="10" x1="835.466" y1="281.884" x2="835.466" y2="593.526"/>
	<rect x="890.551" y="319.117" fill="none" width="656.438" height="237.685"/>
	<g enable-background="new    ">
		<path fill="#FFFFFF" d="M930.335,356.351h-24.482v22.953h27.543v7.141h-36.214v-64.267h34.684v7.141h-26.013v20.402h24.482
			V356.351L930.335,356.351z"/>
		<path fill="#FFFFFF" d="M943.086,376.243c3.57,2.55,9.182,4.08,14.792,4.08c8.671,0,13.262-4.59,13.262-10.711
			c0-6.12-3.57-9.181-12.241-12.751c-10.201-3.57-16.832-9.182-16.832-18.362c0-9.69,8.161-17.342,20.402-17.342
			c6.631,0,11.221,1.53,13.771,3.061l-2.041,6.631c-2.04-1.021-6.12-3.061-12.241-3.061c-8.671,0-12.241,5.101-12.241,9.691
			c0,6.12,4.081,8.671,12.752,12.241c10.711,4.08,16.321,9.181,16.321,18.871c0,9.691-7.141,18.362-22.442,18.362
			c-6.12,0-12.751-2.04-16.321-4.08L943.086,376.243z"/>
		<path fill="#FFFFFF" d="M990.521,323.198c4.08-0.51,9.181-1.02,15.812-1.02c8.161,0,14.281,2.04,17.852,5.101
			c3.57,3.06,5.61,7.65,5.61,13.261c0,5.611-1.529,10.201-5.1,13.771c-4.591,4.591-11.222,7.141-19.383,7.141
			c-2.55,0-4.59,0-6.631-0.51v25.503h-8.16V323.198L990.521,323.198z M999.192,353.801c2.04,0.51,4.08,0.51,6.631,0.51
			c9.69,0,15.812-5.101,15.812-13.771s-6.121-12.751-14.792-12.751c-3.57,0-6.12,0.51-7.65,0.51V353.801L999.192,353.801z"/>
		<path fill="#FFFFFF" d="M1043.566,366.042l-6.631,19.892h-8.67l21.932-63.756h9.691l21.932,63.756h-8.671l-7.141-19.892H1043.566z
			 M1064.478,359.411l-6.12-18.361c-1.53-4.081-2.551-8.161-3.061-11.731l0,0c-1.021,3.57-2.04,7.65-3.061,11.731l-6.12,18.361
			C1045.096,359.411,1064.478,359.411,1064.478,359.411z"/>
		<path fill="#FFFFFF" d="M1134.355,383.894c-3.06,1.53-9.181,3.061-16.831,3.061c-17.853,0-31.623-11.221-31.623-32.133
			c0-19.893,13.771-33.664,33.153-33.664c7.65,0,12.751,1.53,15.301,3.061l-2.04,6.631c-3.06-1.53-7.65-2.551-12.751-2.551
			c-14.791,0-24.992,9.691-24.992,26.523c0,15.812,9.181,25.502,24.482,25.502c5.101,0,10.201-1.02,13.771-2.55L1134.355,383.894z"
			/>
		<path fill="#FFFFFF" d="M1177.71,356.351h-24.992v22.953h27.543v7.141h-36.214v-64.267h34.684v7.141h-26.013v20.402h24.482
			L1177.71,356.351L1177.71,356.351z"/>
	</g>
	<g enable-background="new    ">
		<path fill="#FFFFFF" d="M897.691,468.053v-63.757h9.182l20.402,32.133c4.59,7.651,8.67,14.282,11.221,20.912h0.51
			c-0.51-8.671-1.02-16.321-1.02-26.012v-26.523h7.65v63.247h-8.161l-20.401-32.134c-4.591-7.141-8.671-14.281-11.731-21.422h-0.511
			c0.511,8.161,0.511,15.812,0.511,26.522v27.033H897.691L897.691,468.053z"/>
		<path fill="#FFFFFF" d="M968.079,404.296v37.744c0,14.281,6.12,20.401,14.791,20.401c9.182,0,15.302-6.12,15.302-20.401v-37.744
			h8.161v37.233c0,19.383-10.201,27.543-23.973,27.543c-13.261,0-22.952-7.141-22.952-27.032v-37.744H968.079L968.079,404.296z"/>
		<path fill="#FFFFFF" d="M1074.679,440c-0.51-8.671-1.02-19.893-1.02-27.543l0,0c-2.041,7.141-4.591,15.301-8.161,24.482
			l-11.222,31.113h-6.12l-10.201-30.604c-3.061-9.181-5.61-17.342-7.141-24.992l0,0c0,8.16-0.51,18.361-1.021,28.053l-1.529,27.543
			h-7.651l4.591-63.757h10.711l10.711,30.604c2.551,7.65,4.591,14.791,6.631,21.422l0,0c1.53-6.631,4.08-13.262,6.631-21.422
			l11.221-30.604h10.711l4.081,63.757h-9.691L1074.679,440z"/>
		<path fill="#FFFFFF" d="M1130.275,437.959h-24.482v22.953h27.543v7.141h-36.214v-63.757h34.684v7.141h-26.013v20.402h24.482
			V437.959L1130.275,437.959z"/>
		<path fill="#FFFFFF" d="M1143.537,405.317c4.08-0.511,10.201-1.53,15.812-1.53c8.671,0,14.791,1.53,18.361,5.101
			c3.061,3.06,5.101,7.141,5.101,12.241c0,8.16-5.101,13.771-11.73,16.321v0.51c4.59,1.53,7.65,6.121,9.181,12.752
			c2.04,8.671,3.57,14.791,5.101,17.342h-8.671c-1.021-2.041-2.551-7.141-4.081-15.302c-2.04-8.671-5.61-12.241-12.751-12.241h-7.65
			v27.543h-8.161v-62.736H1143.537z M1151.697,434.389h8.671c8.671,0,14.282-4.59,14.282-12.241c0-8.16-6.121-11.731-14.792-11.731
			c-4.08,0-6.631,0.511-8.161,0.511V434.389L1151.697,434.389z"/>
		<path fill="#FFFFFF" d="M1202.703,404.296v63.757h-8.161v-63.757H1202.703z"/>
		<path fill="#FFFFFF" d="M1270.029,477.743c-8.67-2.04-16.831-4.59-24.482-7.141c-1.529-0.51-2.55-1.021-4.08-1.021
			c-15.302-0.51-28.053-11.73-28.053-32.133s12.241-33.663,29.583-33.663s28.563,13.261,28.563,32.133
			c0,16.322-7.65,27.033-18.361,30.604v0.51c6.12,1.53,13.261,3.061,18.872,4.08L1270.029,477.743z M1262.888,435.919
			c0-12.751-6.631-26.013-20.401-26.013c-13.771,0-20.912,12.752-20.912,26.522c0,13.771,7.141,26.013,20.401,26.013
			C1255.748,462.442,1262.888,450.2,1262.888,435.919z"/>
		<path fill="#FFFFFF" d="M1290.941,404.296v37.744c0,14.281,6.121,20.401,14.792,20.401c9.181,0,15.302-6.12,15.302-20.401v-37.744
			h8.16v37.233c0,19.383-10.2,27.543-23.972,27.543c-13.262,0-22.952-7.141-22.952-27.032v-37.744H1290.941L1290.941,404.296z"/>
		<path fill="#FFFFFF" d="M1376.631,437.959h-24.482v22.953h27.543v7.141h-36.214v-63.757h34.683v7.141h-26.012v20.402h24.482
			V437.959L1376.631,437.959z"/>
		<path fill="#FFFFFF" d="M1410.294,405.317c5.101-1.021,11.222-1.53,17.342-1.53c11.731,0,20.402,3.06,26.013,8.16
			s9.181,12.752,9.181,22.953c0,10.2-3.061,18.871-9.181,24.992c-6.121,6.12-15.812,9.181-28.053,9.181
			c-6.121,0-10.711-0.51-14.792-0.51L1410.294,405.317L1410.294,405.317z M1418.455,461.422c2.04,0.51,5.101,0.51,8.16,0.51
			c17.853,0,27.033-9.69,27.033-27.032c0-14.792-8.671-24.483-26.013-24.483c-4.08,0-7.65,0.511-9.691,1.021L1418.455,461.422
			L1418.455,461.422z"/>
		<path fill="#FFFFFF" d="M1506.183,437.959h-24.482v22.953h27.543v7.141h-36.214v-63.757h34.684v7.141h-26.013v20.402h24.482
			V437.959L1506.183,437.959z"/>
	</g>
	<g enable-background="new    ">
		<path fill="#FFFFFF" d="M909.423,493.555h-19.382v-7.141h47.435v7.141h-19.382v56.616h-8.16L909.423,493.555L909.423,493.555z"/>
		<path fill="#FFFFFF" d="M944.616,487.435c4.081-0.511,10.201-1.53,15.812-1.53c8.672,0,14.792,1.53,18.362,5.101
			c3.061,3.061,5.101,7.141,5.101,12.241c0,8.161-5.101,13.771-11.731,16.321v0.511c4.591,1.529,7.651,6.12,9.182,12.751
			c2.04,8.671,3.57,15.302,5.101,17.342h-8.672c-1.02-2.04-2.55-7.141-4.08-15.302c-2.04-8.671-5.61-12.241-12.751-12.241h-7.651
			v27.543h-8.16L944.616,487.435L944.616,487.435z M952.777,516.507h8.671c8.671,0,14.281-4.59,14.281-12.241
			c0-8.16-6.12-11.73-14.791-11.73c-4.081,0-6.631,0.51-8.161,0.51V516.507L952.777,516.507z"/>
		<path fill="#FFFFFF" d="M1006.333,530.279l-6.631,19.893h-8.671l21.933-63.757h9.69l21.933,63.757h-8.671l-6.631-19.893H1006.333
			L1006.333,530.279z M1027.245,523.649l-6.121-18.362c-1.53-4.08-2.55-8.161-3.06-11.731l0,0c-1.021,3.57-2.041,7.651-3.061,11.731
			l-6.121,18.362C1007.863,523.649,1027.245,523.649,1027.245,523.649z"/>
		<path fill="#FFFFFF" d="M1062.948,550.171l-20.912-63.757h9.182l9.69,31.623c2.551,8.671,5.101,16.322,6.631,23.973l0,0
			c2.04-7.141,4.591-15.302,7.141-23.973l10.711-31.623h8.671l-22.952,63.757C1072.13,550.171,1062.948,550.171,1062.948,550.171z"
			/>
		<path fill="#FFFFFF" d="M1106.813,530.279l-6.631,19.893h-8.671l21.932-63.757h9.691l21.933,63.757h-8.671l-6.631-19.893H1106.813
			L1106.813,530.279z M1127.725,523.649l-6.121-18.362c-1.53-4.08-2.55-8.161-3.061-11.731l0,0c-1.02,3.57-2.04,7.651-3.06,11.731
			l-6.121,18.362C1108.344,523.649,1127.725,523.649,1127.725,523.649z"/>
		<path fill="#FFFFFF" d="M1162.408,486.414v63.757h-8.16v-63.757H1162.408z"/>
		<path fill="#FFFFFF" d="M1176.69,486.414h8.161v57.126h27.032v7.141h-35.704v-64.267H1176.69z"/>
	</g>
</g>
</svg>
