<svg id="Calque_1" data-name="Calque 1" xmlns="http://www.w3.org/2000/svg" viewBox="0 0 142.79 39.76"><defs><style>.cls-1{fill:#5a3217;}.cls-2{fill:#ea5b0b;}</style></defs><polygon class="cls-1" points="2.65 34.55 2.65 39.67 6.33 39.67 6.33 38.65 3.77 38.65 3.77 34.55 2.65 34.55"/><path class="cls-1" d="M8.93,34.52l-2.2,5.15H7.88l.47-1.14h2.17L11,39.67h1.18L10,34.52Zm.5,1.35.68,1.66H8.75Z"/><polygon class="cls-1" points="19.05 34.55 17.7 36.72 16.36 34.55 15.14 34.55 15.14 39.67 16.25 39.67 16.25 36.35 17.67 38.52 17.7 38.52 19.14 36.33 19.14 39.67 20.26 39.67 20.26 34.55 19.05 34.55"/><path class="cls-1" d="M21.41,37.48V34.55h1.12v2.9c0,.83.42,1.27,1.11,1.27s1.1-.42,1.1-1.23V34.55h1.13v2.89a2.06,2.06,0,0,1-2.25,2.31,2,2,0,0,1-2.21-2.27"/><polygon class="cls-1" points="28.21 35.59 26.65 35.59 26.65 34.55 30.89 34.55 30.89 35.59 29.33 35.59 29.33 39.67 28.21 39.67 28.21 35.59"/><path class="cls-1" d="M31.67,37.48V34.55H32.8v2.9c0,.83.41,1.27,1.1,1.27S35,38.3,35,37.49V34.55h1.12v2.89a2.06,2.06,0,0,1-2.24,2.31,2,2,0,0,1-2.22-2.27"/><polygon class="cls-1" points="37.28 34.55 41.14 34.55 41.14 35.56 38.4 35.56 38.4 36.59 40.81 36.59 40.81 37.59 38.4 37.59 38.4 38.67 41.18 38.67 41.18 39.67 37.28 39.67 37.28 34.55"/><polygon class="cls-1" points="42.18 34.55 43.3 34.55 43.3 38.65 45.86 38.65 45.86 39.67 42.18 39.67 42.18 34.55"/><polygon class="cls-1" points="46.7 34.55 47.83 34.55 47.83 38.65 50.38 38.65 50.38 39.67 46.7 39.67 46.7 34.55"/><polygon class="cls-1" points="51.23 34.55 55.09 34.55 55.09 35.56 52.35 35.56 52.35 36.59 54.76 36.59 54.76 37.59 52.35 37.59 52.35 38.67 55.13 38.67 55.13 39.67 51.23 39.67 51.23 34.55"/><path class="cls-1" d="M60.32,38.66a1.46,1.46,0,0,0,1.54-1.53v0a1.47,1.47,0,0,0-1.54-1.54h-.87v3.09Zm-2-4.11h2A2.55,2.55,0,0,1,63,37.1h0a2.56,2.56,0,0,1-2.72,2.56h-2Z"/><path class="cls-1" d="M63.65,36.45c.5-.05.75-.31.72-.73h-.46V34.55H65.1v1a1.21,1.21,0,0,1-1.36,1.37Z"/><path class="cls-1" d="M68.34,37.53l-.68-1.66L67,37.53Zm-1.19-3h1l2.2,5.15H69.21l-.47-1.14H66.57l-.46,1.14H65Z"/><path class="cls-1" d="M70.62,37.13v0a2.62,2.62,0,0,1,2.68-2.64,2.77,2.77,0,0,1,2,.7L74.6,36a1.86,1.86,0,0,0-1.33-.52,1.55,1.55,0,0,0-1.48,1.6h0a1.54,1.54,0,0,0,1.56,1.63,1.86,1.86,0,0,0,1.06-.31V37.7H73.27v-1H75.5V39a3.31,3.31,0,0,1-2.19.81,2.56,2.56,0,0,1-2.69-2.63"/><path class="cls-1" d="M76.32,38.78l1.7-1.4c.64-.52.89-.8.89-1.22a.63.63,0,0,0-.69-.67c-.39,0-.66.22-1,.69l-.79-.64a2.12,2.12,0,0,1,1.91-1.06,1.58,1.58,0,0,1,1.76,1.58h0c0,.86-.44,1.29-1.35,2l-.83.64h2.23v1H76.32Z"/><path class="cls-1" d="M83.4,37c.55,0,.86-.29.86-.72v0c0-.48-.34-.73-.88-.73H82.26V37Zm-2.27-2.49h2.34a2.05,2.05,0,0,1,1.49.52,1.6,1.6,0,0,1,.44,1.17v0a1.59,1.59,0,0,1-1.1,1.59l1.25,1.82H84.24L83.14,38h-.88v1.63H81.13Z"/><polygon class="cls-1" points="88.61 34.55 89.74 34.55 89.74 38.65 92.29 38.65 92.29 39.67 88.61 39.67 88.61 34.55"/><path class="cls-1" d="M96.08,37.53l-.69-1.66-.67,1.66Zm-1.19-3h1l2.19,5.15H97l-.47-1.14H94.31l-.47,1.14H92.7Z"/><polygon class="cls-1" points="101.1 34.55 102.32 34.55 103.66 36.72 105.01 34.55 106.22 34.55 106.22 39.67 105.11 39.67 105.11 36.33 103.66 38.52 103.64 38.52 102.21 36.35 102.21 39.67 101.1 39.67 101.1 34.55"/><path class="cls-1" d="M111.49,37.13v0a1.56,1.56,0,0,0-1.55-1.61,1.54,1.54,0,0,0-1.54,1.6h0A1.55,1.55,0,0,0,110,38.72a1.53,1.53,0,0,0,1.54-1.59m-4.27,0v0a2.73,2.73,0,0,1,5.45,0h0a2.73,2.73,0,0,1-5.45,0"/><polygon class="cls-1" points="113.67 34.55 114.7 34.55 117.1 37.71 117.1 34.55 118.21 34.55 118.21 39.67 117.26 39.67 114.78 36.42 114.78 39.67 113.67 39.67 113.67 34.55"/><path class="cls-1" d="M121.44,38.66A1.46,1.46,0,0,0,123,37.13v0a1.47,1.47,0,0,0-1.54-1.54h-.87v3.09Zm-2-4.11h2a2.55,2.55,0,0,1,2.72,2.55h0a2.56,2.56,0,0,1-2.72,2.56h-2Z"/><rect class="cls-1" x="125.21" y="34.55" width="1.13" height="5.12"/><path class="cls-1" d="M130.55,37.53l-.68-1.66-.68,1.66Zm-1.18-3h1l2.19,5.15h-1.17L131,38.53h-2.17l-.47,1.14h-1.15Z"/><polygon class="cls-1" points="133.39 34.55 134.52 34.55 134.52 38.65 137.07 38.65 137.07 39.67 133.39 39.67 133.39 34.55"/><polygon class="cls-1" points="137.91 34.55 141.78 34.55 141.78 35.56 139.03 35.56 139.03 36.59 141.45 36.59 141.45 37.59 139.03 37.59 139.03 38.67 141.81 38.67 141.81 39.67 137.91 39.67 137.91 34.55"/><polygon class="cls-2" points="0 8.78 5.99 8.78 10.46 22.14 14.96 8.78 20.84 8.78 12.98 28.88 7.85 28.88 0 8.78"/><path class="cls-2" d="M22.51,8.78h5.66v20H22.51Zm-.15-7.22h6v5h-6Z"/><path class="cls-2" d="M43.43,21.7v-1A8.75,8.75,0,0,0,39.82,20c-2.42,0-3.91,1-3.91,2.75v.08c0,1.52,1.27,2.42,3.09,2.42,2.64,0,4.43-1.46,4.43-3.5m-13,1.3v-.07c0-4.36,3.31-6.37,8-6.37a14.21,14.21,0,0,1,4.87.82v-.33c0-2.35-1.45-3.65-4.28-3.65a14.65,14.65,0,0,0-5.5,1.08l-1.42-4.32a17.6,17.6,0,0,1,7.74-1.6c3.09,0,5.32.82,6.74,2.23s2.16,3.69,2.16,6.37V28.73H43.31V26.57a7.63,7.63,0,0,1-6,2.53c-3.76,0-6.85-2.16-6.85-6.1"/><path class="cls-2" d="M50.72,26.09l2.42-3.72a11.31,11.31,0,0,0,6.29,2.38c1.64,0,2.38-.6,2.38-1.49v-.08c0-1.22-1.93-1.63-4.13-2.3-2.79-.82-6-2.12-6-6v-.08c0-4.05,3.27-6.32,7.29-6.32a13.81,13.81,0,0,1,7.45,2.3L64.31,14.7a11.87,11.87,0,0,0-5.4-1.86c-1.37,0-2.08.6-2.08,1.38v.07c0,1.12,1.9,1.64,4.06,2.38,2.79.93,6,2.27,6,5.92v.07c0,4.43-3.32,6.44-7.64,6.44a14,14,0,0,1-8.56-3"/><path class="cls-2" d="M81.43,21.7v-1A8.75,8.75,0,0,0,77.82,20c-2.42,0-3.91,1-3.91,2.75v.08c0,1.52,1.26,2.42,3.09,2.42,2.64,0,4.43-1.46,4.43-3.5m-13,1.3v-.07c0-4.36,3.31-6.37,8-6.37a14.21,14.21,0,0,1,4.87.82v-.33c0-2.35-1.45-3.65-4.28-3.65a14.7,14.7,0,0,0-5.51,1.08l-1.41-4.32a17.53,17.53,0,0,1,7.74-1.6c3.09,0,5.32.82,6.74,2.23s2.15,3.69,2.15,6.37V28.73H81.31V26.57a7.64,7.64,0,0,1-6,2.53c-3.76,0-6.84-2.16-6.84-6.1"/><path class="cls-2" d="M89.28,8.78h5.66v2.83a7.05,7.05,0,0,1,5.84-3.2c4.28,0,6.77,2.83,6.77,7.41V28.73H101.9V17.6c0-2.67-1.27-4.05-3.43-4.05s-3.53,1.38-3.53,4.05V28.73H89.28Z"/><path class="cls-2" d="M111.53,23.07V13.62h-2.38V8.78h2.38V3.68h5.66v5.1h4.69v4.84h-4.69v8.52c0,1.31.56,1.94,1.83,1.94a5.72,5.72,0,0,0,2.79-.71v4.54a8.32,8.32,0,0,1-4.47,1.15c-3.46,0-5.81-1.37-5.81-6"/><path class="cls-2" d="M135,0l4.87,2.12-4.76,4.47h-4.32Zm2.27,17.19C137,14.66,135.46,13,133.08,13s-3.87,1.67-4.32,4.24Zm-14.07,1.68V18.8c0-5.7,4.06-10.39,9.86-10.39,6.66,0,9.71,5.17,9.71,10.83,0,.45,0,1-.07,1.49H128.84a4.63,4.63,0,0,0,4.87,3.91,6.5,6.5,0,0,0,4.84-2.05l3.24,2.87a10,10,0,0,1-8.15,3.72c-6,0-10.42-4.21-10.42-10.31"/></svg>